<svg width="1409" height="430" xmlns="http://www.w3.org/2000/svg" xmlns:xlink="http://www.w3.org/1999/xlink" xml:space="preserve" overflow="hidden"><defs><clipPath id="clip0"><rect x="0" y="3" width="1409" height="430"/></clipPath><clipPath id="clip1"><rect x="349" y="309" width="30" height="124"/></clipPath><clipPath id="clip2"><rect x="810" y="309" width="29" height="124"/></clipPath></defs><g clip-path="url(#clip0)" transform="matrix(1 0 0 1 0 -3)"><path d="M156.425 262.404C161.546 268.783 164.073 278.418 164.757 286.794 166.357 306.593 151.591 321.249 147.74 339.723 144.936 353.242 150.157 369.542 161.137 378.239 164.658 381.042 169.701 376.076 166.126 373.25 161.248 369.377 157.959 363.837 155.84 358.076 149.097 339.767 162.694 323.93 168.796 307.74 174.844 291.705 172.251 270.902 161.424 257.416 158.566 253.862 153.6 258.895 156.425 262.404" fill="#545454" transform="matrix(1.00013 0 0 1 16.4666 7.23784)"/><path d="M222.167 96.9407C198.174 31.8942 134.287 6.3347 75.1555 28.1419 16.0244 49.9492-15.9692 110.868 8.02321 175.915 30.305 236.359 93.1002 279.091 149.318 267.337 149.395 267.79 149.505 268.242 149.671 268.695 150.587 271.145 152.629 272.855 154.99 273.44 153.291 276.95 151.591 280.459 149.881 283.98 147.96 287.931 152.706 291.219 156.094 289.1 155.211 289.663 155.895 289.211 156.458 288.979 157.418 288.571 158.4 288.383 159.427 288.229 163.334 287.633 167.141 288.88 171.048 288.019 175.893 286.937 180.417 283.847 183.552 280.018 185.395 277.777 184.368 274.93 182.084 273.573 178.773 271.619 175.462 269.655 172.151 267.702 174.138 265.671 174.899 262.614 173.851 259.778 173.696 259.369 173.509 258.983 173.31 258.619 224.242 231.382 244.57 157.683 222.167 96.9407" fill="#9BDD83" transform="matrix(1.00013 0 0 1 16.4666 7.23784)"/><path d="M134.651 54.5402C148.325 54.8382 161.182 64.1857 170.021 73.7319 173.123 77.0868 178.1 72.0765 175.01 68.7436 164.857 57.7737 150.201 47.8192 134.651 47.4771 130.093 47.3667 130.104 54.4298 134.651 54.5402" fill="#FFFFFF" transform="matrix(1.00013 0 0 1 16.4666 7.23784)"/><path d="M1300.87 262.404C1306 268.783 1308.52 278.418 1309.21 286.794 1310.81 306.593 1296.04 321.249 1292.2 339.723 1289.39 353.242 1294.61 369.542 1305.59 378.239 1309.12 381.042 1314.15 376.076 1310.59 373.25 1305.7 369.377 1302.42 363.837 1300.29 358.076 1293.55 339.767 1307.14 323.93 1313.25 307.74 1319.29 291.705 1316.71 270.902 1305.87 257.416 1303.02 253.862 1298.05 258.895 1300.87 262.404" fill="#545454" transform="matrix(1.00013 0 0 1 16.4666 7.23784)"/><path d="M576.777 234.152C581.898 240.531 584.425 250.165 585.109 258.542 586.721 278.34 571.943 292.996 568.103 311.471 565.289 324.99 570.509 341.29 581.49 349.986 585.021 352.79 590.054 347.823 586.489 344.998 581.6 341.124 578.322 335.584 576.192 329.824 569.449 311.515 583.046 295.678 589.149 279.477 595.196 263.453 592.614 242.65 581.777 229.164 578.918 225.61 573.963 230.643 576.777 234.152" fill="#545454" transform="matrix(1.00013 0 0 1 16.4666 7.23784)"/><g clip-path="url(#clip1)"><path d="M345.671 303.999C334.293 318.169 333.366 337.516 338.299 354.313 343.221 371.098 355.913 383.249 352.006 402.043 350.615 408.72 346.333 415.574 340.97 419.834 337.394 422.659 342.427 427.614 345.958 424.822 356.939 416.114 362.159 399.825 359.345 386.306 355.703 368.814 343.409 355.35 342.294 337.03 341.731 327.749 345.02 316.017 350.671 308.987 353.485 305.467 348.519 300.446 345.671 303.999" fill="#545454" transform="matrix(1.00013 0 0 1 16.4666 7.23784)"/></g><g clip-path="url(#clip2)"><path d="M806.691 303.999C795.313 318.169 794.386 337.516 799.319 354.313 804.241 371.098 816.922 383.249 813.026 402.043 811.636 408.72 807.354 415.574 801.979 419.834 798.414 422.659 803.447 427.614 806.978 424.822 817.959 416.114 823.179 399.825 820.365 386.306 816.723 368.814 804.429 355.35 803.314 337.03 802.752 327.749 806.04 316.017 811.68 308.987 814.505 305.467 809.539 300.446 806.691 303.999" fill="#545454" transform="matrix(1.00013 0 0 1 16.4666 7.23784)"/></g><path d="M1051.56 252.483C1056.68 258.862 1059.21 268.496 1059.89 276.873 1061.5 296.671 1046.73 311.327 1042.89 329.801 1040.07 343.321 1045.29 359.61 1056.27 368.317 1059.8 371.109 1064.84 366.154 1061.27 363.329 1056.38 359.455 1053.1 353.915 1050.97 348.143 1044.23 329.835 1057.83 314.009 1063.93 297.808 1069.98 281.784 1067.4 260.981 1056.56 247.495 1053.71 243.941 1048.75 248.973 1051.56 252.483" fill="#545454" transform="matrix(1.00013 0 0 1 16.4666 7.23784)"/><path d="M1369.67 96.9407C1345.68 31.8942 1281.79 6.3347 1222.66 28.1419 1163.53 49.9492 1131.54 110.868 1155.53 175.915 1177.82 236.359 1240.61 279.091 1296.84 267.337 1296.9 267.79 1297.02 268.242 1297.19 268.695 1298.09 271.145 1300.14 272.855 1302.51 273.44 1300.8 276.95 1299.1 280.459 1297.39 283.98 1295.47 287.931 1300.22 291.219 1303.6 289.1 1302.72 289.663 1303.4 289.211 1303.96 288.979 1304.93 288.571 1305.91 288.383 1306.93 288.229 1310.84 287.633 1314.65 288.88 1318.55 288.019 1323.41 286.937 1327.92 283.847 1331.07 280.018 1332.9 277.777 1331.88 274.93 1329.59 273.573 1326.28 271.619 1322.97 269.655 1319.66 267.702 1321.64 265.671 1322.41 262.614 1321.36 259.778 1321.21 259.369 1321.03 258.983 1320.82 258.619 1371.75 231.382 1392.08 157.683 1369.67 96.9407" fill="#9BDD83" transform="matrix(1.00013 0 0 1 16.4666 7.23784)"/><path d="M482.662 207.456C496.589 139.54 455.8 84.1168 394.064 71.4585 332.318 58.7891 273.01 93.674 259.082 161.59 246.126 224.705 276.939 294.122 330.894 313.788 330.728 314.219 330.585 314.66 330.486 315.124 329.956 317.695 330.795 320.222 332.505 321.966 329.206 324.052 325.906 326.137 322.606 328.223 318.887 330.574 321.182 335.871 325.177 335.86 324.129 335.871 324.946 335.849 325.553 335.938 326.579 336.114 327.506 336.467 328.466 336.865 332.097 338.432 334.668 341.5 338.443 342.824 343.133 344.468 348.607 344.226 353.297 342.614 356.034 341.687 356.663 338.73 355.438 336.379 353.661 332.958 351.885 329.548 350.108 326.137 352.856 325.464 355.118 323.268 355.725 320.31 355.813 319.88 355.858 319.461 355.88 319.041 413.521 322.76 469.65 270.88 482.662 207.456" fill="#FFDE59" transform="matrix(1.00013 0 0 1 16.4666 7.23784)"/><path d="M1097.5 80.795C1067.73 18.1764 1001.8-1.51194 944.874 25.5595 887.95 52.6199 861.607 116.177 891.371 178.795 919.038 236.977 985.431 273.86 1040.36 257.063 1040.47 257.515 1040.63 257.957 1040.83 258.387 1041.96 260.749 1044.14 262.272 1046.56 262.625 1045.18 266.278 1043.8 269.931 1042.42 273.584 1040.87 277.7 1045.89 280.548 1049.08 278.131 1048.24 278.771 1048.89 278.263 1049.42 277.976 1050.33 277.491 1051.31 277.215 1052.31 276.961 1056.15 276.023 1060.06 276.917 1063.86 275.703 1068.59 274.191 1072.81 270.703 1075.6 266.598 1077.22 264.203 1075.95 261.466 1073.54 260.329 1070.08 258.674 1066.6 257.019 1063.13 255.363 1064.91 253.167 1065.4 250.055 1064.11 247.318 1063.92 246.932 1063.7 246.568 1063.46 246.225 1111.73 214.486 1125.3 139.264 1097.5 80.795" fill="#CB6CE6" transform="matrix(1.00013 0 0 1 16.4666 7.23784)"/><path d="M684.743 106.972C679.6 37.8426 625.237-4.33717 562.375 0.342118 499.525 5.01037 451.993 54.7719 457.135 123.902 461.914 188.154 510.495 246.523 567.783 250.717 567.728 251.17 567.717 251.633 567.75 252.119 567.948 254.723 569.449 256.93 571.557 258.144 568.953 261.047 566.348 263.949 563.744 266.863 560.808 270.129 564.461 274.61 568.302 273.507 567.297 273.793 568.081 273.551 568.688 273.484 569.714 273.363 570.719 273.451 571.745 273.584 575.663 274.091 578.984 276.343 582.969 276.575 587.935 276.884 593.133 275.151 597.205 272.326 599.589 270.681 599.379 267.668 597.558 265.737 594.921 262.945 592.272 260.142 589.634 257.35 592.095 255.948 593.674 253.222 593.453 250.198 593.42 249.768 593.342 249.349 593.243 248.94 649.715 236.79 689.544 171.544 684.743 106.972" fill="#CB6CE6" transform="matrix(1.00013 0 0 1 16.4666 7.23784)"/><path d="M945.889 204.012C959.199 135.975 917.891 80.9384 856.034 68.8429 794.188 56.7584 735.2 92.1842 721.89 160.232 709.53 223.458 740.983 292.588 795.126 311.758 794.96 312.188 794.817 312.629 794.728 313.104 794.221 315.675 795.081 318.192 796.803 319.913 793.525 322.032 790.237 324.151 786.959 326.27 783.262 328.643 785.613 333.929 789.597 333.885 788.559 333.896 789.376 333.874 789.983 333.962 791.009 334.117 791.947 334.47 792.896 334.856 796.549 336.379 799.154 339.425 802.939 340.716 807.641 342.316 813.114 342.018 817.794 340.374 820.52 339.425 821.127 336.456 819.868 334.117 818.07 330.717 816.249 327.318 814.439 323.93 817.187 323.224 819.427 321.017 820.012 318.048 820.1 317.618 820.133 317.198 820.144 316.779 877.83 319.957 933.474 267.558 945.889 204.012" fill="#FFDE59" transform="matrix(1.00013 0 0 1 16.4666 7.23784)"/><path d="M1282.16 54.5402C1295.83 54.8382 1308.69 64.1857 1317.53 73.7319 1320.63 77.0868 1325.61 72.0765 1322.52 68.7436 1312.37 57.7737 1297.72 47.8192 1282.16 47.4771 1277.61 47.3667 1277.62 54.4298 1282.16 54.5402" fill="#FFFFFF" transform="matrix(1.00013 0 0 1 16.4666 7.23784)"/><path d="M430.77 125.314C442.226 132.764 448.196 147.607 450.635 160.365 451.496 164.835 458.294 162.936 457.444 158.489 454.641 143.822 447.346 127.676 434.324 119.211 430.494 116.717 426.963 122.842 430.77 125.314" fill="#FFFFFF" transform="matrix(1.00013 0 0 1 16.4666 7.23784)"/><path d="M1006.19 46.4728C1019.89 45.5568 1033.47 53.4035 1043.24 62.1771 1046.62 65.212 1051.63 60.2348 1048.23 57.1778 1037.14 47.2233 1021.73 38.3724 1006.19 39.4097 1001.68 39.7188 1001.64 46.7818 1006.19 46.4728" fill="#FFFFFF" transform="matrix(1.00013 0 0 1 16.4666 7.23784)"/><path d="M612.335 42.1136C625.369 46.1307 635.257 58.767 641.051 70.3769 643.082 74.4492 649.174 70.8735 647.143 66.8123 640.499 53.5028 629.011 39.8622 614.212 35.3043 609.841 33.9579 607.998 40.7782 612.335 42.1136" fill="#FFFFFF" transform="matrix(1.00013 0 0 1 16.4666 7.23784)"/><path d="M893.203 122.346C904.736 129.696 910.861 144.462 913.421 157.198 914.326 161.667 921.124 159.769 920.23 155.321 917.295 140.688 909.867 124.586 896.768 116.254 892.916 113.793 889.385 119.907 893.203 122.346" fill="#FFFFFF" transform="matrix(1.00013 0 0 1 16.4666 7.23784)"/></g></svg>