<svg width="1408" height="430" xmlns="http://www.w3.org/2000/svg" xmlns:xlink="http://www.w3.org/1999/xlink" xml:space="preserve" overflow="hidden"><defs><clipPath id="clip0"><rect x="1548" y="3" width="1408" height="430"/></clipPath><clipPath id="clip1"><rect x="2578" y="309" width="29" height="124"/></clipPath><clipPath id="clip2"><rect x="2117" y="309" width="30" height="124"/></clipPath></defs><g clip-path="url(#clip0)" transform="translate(-1548 -3)"><path d="M156.334 262.252C161.452 268.627 163.978 278.256 164.662 286.628 166.261 306.415 151.503 321.062 147.654 339.526 144.853 353.038 150.07 369.328 161.044 378.02 164.563 380.821 169.603 375.858 166.03 373.034 161.154 369.163 157.868 363.626 155.75 357.868 149.011 339.57 162.599 323.743 168.699 307.562 174.743 291.536 172.151 270.745 161.331 257.267 158.474 253.715 153.511 258.745 156.334 262.252" fill="#545454" transform="matrix(-1 0 0 1.00058 2939.55 7.23784)"/><path d="M222.038 96.8846C198.06 31.8757 134.209 6.33103 75.112 28.1256 16.0151 49.9203-15.9599 110.804 8.01857 175.813 30.2875 236.222 93.0462 278.929 149.231 267.183 149.309 267.635 149.419 268.087 149.584 268.539 150.5 270.988 152.54 272.697 154.901 273.282 153.202 276.789 151.503 280.297 149.794 283.815 147.875 287.764 152.617 291.051 156.004 288.933 155.121 289.496 155.805 289.043 156.368 288.812 157.327 288.404 158.309 288.216 159.335 288.062 163.239 287.466 167.044 288.712 170.949 287.852 175.791 286.771 180.313 283.683 183.445 279.856 185.287 277.617 184.262 274.771 181.978 273.414 178.67 271.462 175.361 269.499 172.052 267.547 174.037 265.517 174.798 262.462 173.75 259.627 173.596 259.219 173.408 258.833 173.21 258.469 224.112 231.248 244.428 157.592 222.038 96.8846" fill="#FF66C4" transform="matrix(-1 0 0 1.00058 2939.55 7.23784)"/><path d="M134.573 54.5086C148.239 54.8064 161.088 64.1485 169.923 73.6892 173.022 77.0422 177.997 72.0347 174.908 68.7038 164.761 57.7403 150.114 47.7915 134.573 47.4496 130.018 47.3393 130.029 54.3983 134.573 54.5086" fill="#FFFFFF" transform="matrix(-1 0 0 1.00058 2939.55 7.23784)"/><path d="M1300.12 262.252C1305.24 268.627 1307.77 278.256 1308.45 286.628 1310.05 306.415 1295.29 321.062 1291.45 339.526 1288.64 353.038 1293.86 369.328 1304.83 378.02 1308.36 380.821 1313.39 375.858 1309.83 373.034 1304.94 369.163 1301.67 363.626 1299.54 357.868 1292.8 339.57 1306.39 323.743 1312.49 307.562 1318.53 291.536 1315.95 270.745 1305.12 257.267 1302.26 253.715 1297.3 258.745 1300.12 262.252" fill="#545454" transform="matrix(-1 0 0 1.00058 2939.55 7.23784)"/><path d="M576.443 234.016C581.561 240.392 584.087 250.02 584.771 258.392 586.381 278.179 571.612 292.827 567.774 311.29 564.961 324.802 570.179 341.092 581.153 349.784 584.682 352.585 589.712 347.622 586.149 344.798 581.263 340.927 577.987 335.39 575.859 329.633 569.12 311.334 582.708 295.507 588.808 279.315 594.852 263.3 592.271 242.509 581.44 229.031 578.583 225.479 573.631 230.509 576.443 234.016" fill="#545454" transform="matrix(-1 0 0 1.00058 2939.55 7.23784)"/><g clip-path="url(#clip1)"><path d="M345.471 303.823C334.1 317.985 333.173 337.32 338.103 354.107 343.023 370.883 355.707 383.027 351.802 401.811 350.412 408.484 346.133 415.333 340.773 419.59 337.199 422.414 342.228 427.366 345.758 424.576 356.732 415.874 361.949 399.594 359.137 386.082 355.497 368.6 343.21 355.144 342.096 336.835 341.534 327.559 344.82 315.834 350.468 308.809 353.28 305.29 348.317 300.272 345.471 303.823" fill="#545454" transform="matrix(-1 0 0 1.00058 2939.55 7.23784)"/></g><g clip-path="url(#clip2)"><path d="M806.224 303.823C794.853 317.985 793.926 337.32 798.857 354.107 803.776 370.883 816.449 383.027 812.555 401.811 811.166 408.484 806.886 415.333 801.515 419.59 797.952 422.414 802.982 427.366 806.511 424.576 817.486 415.874 822.703 399.594 819.89 386.082 816.25 368.6 803.963 355.144 802.849 336.835 802.287 327.559 805.574 315.834 811.21 308.809 814.033 305.29 809.07 300.272 806.224 303.823" fill="#545454" transform="matrix(-1 0 0 1.00058 2939.55 7.23784)"/></g><path d="M1050.95 252.337C1056.07 258.712 1058.59 268.341 1059.28 276.712 1060.89 296.499 1046.12 311.147 1042.28 329.611 1039.47 343.122 1044.69 359.402 1055.66 368.104 1059.19 370.895 1064.22 365.942 1060.66 363.119 1055.77 359.247 1052.49 353.71 1050.37 347.942 1043.63 329.644 1057.22 313.827 1063.31 297.635 1069.36 281.62 1066.78 260.829 1055.95 247.351 1053.1 243.8 1048.14 248.829 1050.95 252.337" fill="#545454" transform="matrix(-1 0 0 1.00058 2939.55 7.23784)"/><path d="M1368.88 96.8846C1344.9 31.8757 1281.05 6.33103 1221.95 28.1256 1162.86 49.9203 1130.88 110.804 1154.86 175.813 1177.14 236.222 1239.89 278.929 1296.08 267.183 1296.15 267.635 1296.27 268.087 1296.44 268.539 1297.34 270.988 1299.38 272.697 1301.75 273.282 1300.04 276.789 1298.35 280.297 1296.64 283.815 1294.72 287.764 1299.47 291.051 1302.85 288.933 1301.96 289.496 1302.65 289.043 1303.21 288.812 1304.17 288.404 1305.15 288.216 1306.18 288.062 1310.08 287.466 1313.89 288.712 1317.79 287.852 1322.64 286.771 1327.16 283.683 1330.3 279.856 1332.13 277.617 1331.1 274.771 1328.82 273.414 1325.51 271.462 1322.2 269.499 1318.89 267.547 1320.88 265.517 1321.64 262.462 1320.59 259.627 1320.45 259.219 1320.26 258.833 1320.05 258.469 1370.95 231.248 1391.27 157.592 1368.88 96.8846" fill="#FF66C4" transform="matrix(-1 0 0 1.00058 2939.55 7.23784)"/><path d="M482.382 207.336C496.302 139.459 455.536 84.0681 393.836 71.4171 332.125 58.755 272.852 93.6198 258.932 161.496 245.984 224.575 276.778 293.952 330.702 313.606 330.537 314.037 330.394 314.478 330.294 314.941 329.765 317.511 330.603 320.037 332.313 321.779 329.015 323.864 325.717 325.949 322.419 328.033 318.702 330.383 320.996 335.677 324.989 335.666 323.941 335.677 324.757 335.655 325.364 335.743 326.39 335.919 327.316 336.272 328.276 336.669 331.905 338.236 334.475 341.302 338.247 342.625 342.934 344.269 348.405 344.026 353.093 342.416 355.828 341.489 356.457 338.533 355.232 336.184 353.457 332.765 351.681 329.357 349.905 325.949 352.651 325.276 354.913 323.081 355.519 320.125 355.607 319.695 355.652 319.276 355.674 318.857 413.282 322.574 469.378 270.723 482.382 207.336" fill="#8C52FF" transform="matrix(-1 0 0 1.00058 2939.55 7.23784)"/><path d="M1096.87 80.7482C1067.11 18.1659 1001.22-1.51106 944.327 25.5447 887.436 52.5894 861.108 116.109 890.855 178.692 918.506 236.84 984.861 273.701 1039.76 256.914 1039.87 257.366 1040.03 257.807 1040.23 258.238 1041.35 260.598 1043.54 262.12 1045.95 262.473 1044.58 266.124 1043.2 269.775 1041.82 273.425 1040.26 277.539 1045.28 280.385 1048.47 277.97 1047.63 278.609 1048.28 278.102 1048.81 277.815 1049.73 277.33 1050.7 277.054 1051.7 276.8 1055.54 275.863 1059.44 276.756 1063.25 275.543 1067.97 274.032 1072.19 270.547 1074.97 266.444 1076.59 264.05 1075.33 261.315 1072.92 260.179 1069.46 258.524 1065.98 256.87 1062.51 255.215 1064.3 253.021 1064.78 249.91 1063.49 247.175 1063.3 246.789 1063.08 246.425 1062.84 246.083 1111.08 214.362 1124.65 139.183 1096.87 80.7482" fill="#FFBD59" transform="matrix(-1 0 0 1.00058 2939.55 7.23784)"/><path d="M684.347 106.911C679.207 37.8207 624.875-4.33466 562.05 0.34192 499.236 5.00747 451.731 54.7402 456.871 123.83 461.647 188.045 510.199 246.381 567.454 250.572 567.399 251.024 567.388 251.487 567.421 251.973 567.62 254.576 569.12 256.782 571.226 257.995 568.623 260.896 566.02 263.796 563.417 266.708 560.483 269.973 564.134 274.451 567.973 273.348 566.969 273.635 567.752 273.392 568.359 273.326 569.384 273.205 570.388 273.293 571.414 273.425 575.329 273.933 578.649 276.183 582.631 276.414 587.594 276.723 592.789 274.992 596.859 272.168 599.242 270.525 599.032 267.513 597.212 265.583 594.576 262.793 591.929 259.991 589.293 257.201 591.753 255.8 593.33 253.076 593.109 250.054 593.076 249.623 592.999 249.204 592.9 248.796 649.338 236.652 689.144 171.445 684.347 106.911" fill="#FFBD59" transform="matrix(-1 0 0 1.00058 2939.55 7.23784)"/><path d="M945.341 203.894C958.643 135.896 917.359 80.8916 855.538 68.803 793.728 56.7256 734.774 92.1308 721.472 160.14 709.119 223.329 740.554 292.418 794.665 311.577 794.5 312.007 794.356 312.448 794.268 312.923 793.761 315.493 794.621 318.007 796.342 319.728 793.066 321.846 789.779 323.963 786.503 326.081 782.808 328.452 785.158 333.736 789.139 333.691 788.103 333.702 788.919 333.68 789.525 333.769 790.551 333.923 791.489 334.276 792.437 334.662 796.088 336.184 798.691 339.228 802.474 340.519 807.173 342.118 812.644 341.82 817.32 340.177 820.044 339.228 820.651 336.261 819.394 333.923 817.596 330.526 815.776 327.129 813.967 323.743 816.714 323.037 818.953 320.831 819.537 317.864 819.625 317.434 819.659 317.015 819.669 316.595 877.322 319.772 932.933 267.403 945.341 203.894" fill="#8C52FF" transform="matrix(-1 0 0 1.00058 2939.55 7.23784)"/><path d="M1281.42 54.5086C1295.08 54.8064 1307.93 64.1485 1316.77 73.6892 1319.86 77.0422 1324.84 72.0347 1321.75 68.7038 1311.61 57.7403 1296.97 47.7915 1281.42 47.4496 1276.87 47.3393 1276.88 54.3983 1281.42 54.5086" fill="#FFFFFF" transform="matrix(-1 0 0 1.00058 2939.55 7.23784)"/><path d="M430.521 125.242C441.97 132.687 447.937 147.522 450.374 160.272 451.235 164.739 458.029 162.842 457.18 158.397 454.378 143.739 447.087 127.602 434.072 119.142 430.245 116.65 426.716 122.771 430.521 125.242" fill="#FFFFFF" transform="matrix(-1 0 0 1.00058 2939.55 7.23784)"/><path d="M1005.61 46.4459C1019.3 45.5305 1032.87 53.3725 1042.63 62.1411 1046.01 65.1743 1051.02 60.1999 1047.62 57.1447 1036.53 47.1959 1021.14 38.3501 1005.61 39.3869 1001.1 39.6958 1001.06 46.7547 1005.61 46.4459" fill="#FFFFFF" transform="matrix(-1 0 0 1.00058 2939.55 7.23784)"/><path d="M611.981 42.0892C625.007 46.104 634.89 58.733 640.68 70.3362 642.71 74.4061 648.798 70.8325 646.768 66.7736 640.129 53.4718 628.647 39.8391 613.856 35.2839 609.488 33.9383 607.646 40.7546 611.981 42.0892" fill="#FFFFFF" transform="matrix(-1 0 0 1.00058 2939.55 7.23784)"/><path d="M892.686 122.275C904.212 129.621 910.333 144.378 912.892 157.107 913.797 161.574 920.591 159.676 919.698 155.231 916.764 140.606 909.341 124.514 896.248 116.186 892.399 113.727 888.87 119.837 892.686 122.275" fill="#FFFFFF" transform="matrix(-1 0 0 1.00058 2939.55 7.23784)"/></g></svg>