<svg width="881" height="446" xmlns="http://www.w3.org/2000/svg" xmlns:xlink="http://www.w3.org/1999/xlink" xml:space="preserve" overflow="hidden"><defs><clipPath id="clip0"><rect x="535" y="1800" width="881" height="446"/></clipPath></defs><g clip-path="url(#clip0)" transform="translate(-535 -1800)"><path d="M57.2888 673.684C57.3244 668.16 57.3375 662.634 57.2888 657.011 57.2513 653.064 57.1584 649.066 57.0741 645.077 56.5564 620.578 55.1313 597.037 52.6928 575.489 50.2542 553.942 46.824 534.374 42.6416 517.31 38.8233 501.47 34.3934 487.79 29.9276 476.505 25.4615 465.219 20.9427 456.35 16.9561 449.39 7.94312 437.107 2.78109 428.683 3.25356 426.311 3.754 423.968 9.92114 427.986 20.6071 437.367 25.5122 443.224 31.1176 451.624 36.7581 462.991 42.3981 474.357 48.0412 488.767 52.9518 505.989 58.1199 524.343 62.4388 545.624 65.4944 568.995 68.55 592.366 70.3616 617.785 70.8636 643.936 70.9454 648.194 70.9763 652.463 70.9924 656.66 71.0192 662.412 70.9773 668.048 70.9065 673.683L57.2901 673.683 57.2902 673.683Z" fill="#00892C" fill-rule="evenodd" transform="matrix(1 8.73097e-05 -8.72665e-05 1.0005 495.864 1569.95)"/><path d="M102.084 673.684C102.375 668.212 102.699 662.731 102.943 657.187 104.388 624.319 104.847 592.413 104.432 562.304 103.951 527.055 102.251 494.222 99.9648 464.963 97.6785 435.705 94.827 410.078 92.1763 388.799 89.5257 367.52 87.1231 350.577 85.6478 338.725 84.1723 326.873 83.6152 320.087 84.5596 319.186 85.504 318.286 87.8511 323.355 91.0882 333.928 94.3253 344.501 98.477 360.611 102.714 381.663 106.951 402.715 111.232 428.767 114.741 458.998 118.249 489.228 120.943 523.621 122.014 560.785 122.922 592.465 122.721 626.095 121.212 660.582 121.019 664.989 120.813 669.326 120.582 673.685L102.084 673.685Z" fill="#00892C" fill-rule="evenodd" transform="matrix(1 8.73097e-05 -8.72665e-05 1.0005 495.864 1569.95)"/><path d="M141.137 673.684C144.808 650.55 148.601 628.517 152.09 607.87 155.85 585.624 159.247 564.872 162.013 545.83 163.626 534.704 165.036 524.196 166.179 514.415 167.322 504.633 168.187 495.585 168.842 487.299 169.484 479.112 169.901 471.673 170.174 465.186 170.447 458.698 170.563 453.18 170.646 448.601 170.73 444.022 170.81 440.387 170.947 437.895 171.084 435.403 171.3 434.032 171.677 433.858 172.055 433.685 172.586 434.733 173.181 437.017 173.775 439.302 174.448 442.86 175.071 447.548 175.693 452.235 176.241 458.067 176.617 465.01 176.993 471.953 177.159 479.945 177.047 488.791 176.939 497.731 176.579 507.574 175.887 518.101 175.194 528.627 174.192 539.897 172.923 551.622 170.759 571.663 167.862 593.335 164.461 616.119 161.703 634.596 158.584 653.916 155.484 673.684L141.137 673.684Z" fill="#00892C" fill-rule="evenodd" transform="matrix(1 8.73097e-05 -8.72665e-05 1.0005 495.864 1569.95)"/><path d="M201.187 673.684C201.267 669.543 201.374 665.451 201.445 661.258 201.453 660.844 201.438 660.409 201.445 659.995 202.027 624.604 202.302 590.839 202.631 559.959 202.959 529.078 203.374 501.089 203.971 477.612 204.567 454.137 205.338 435.157 206.29 422.013 207.242 408.869 208.348 401.585 209.486 401.585 210.624 401.585 211.712 408.825 212.733 421.908 213.754 434.991 214.723 453.887 215.62 477.297 216.516 500.706 217.331 528.663 217.836 559.748 218.341 590.833 218.525 625.096 217.939 661.153 217.932 661.576 217.946 661.995 217.939 662.417 217.877 666.215 217.762 669.923 217.682 673.685L201.188 673.685Z" fill="#00892C" fill-rule="evenodd" transform="matrix(1 8.73097e-05 -8.72665e-05 1.0005 495.864 1569.95)"/><path d="M244.353 673.684C244.701 655.968 245.44 638.973 246.581 623.406 247.962 604.546 249.905 587.761 252.062 574.066 254.218 560.37 256.554 549.747 258.497 542.714 260.44 535.681 261.953 532.22 262.67 532.817 263.387 533.414 263.244 538.021 262.599 545.748 261.955 553.475 260.854 564.343 259.77 577.894 258.687 591.445 257.646 607.665 256.906 625.862 256.305 640.636 255.925 656.778 255.669 673.684L244.353 673.684Z" fill="#00892C" fill-rule="evenodd" transform="matrix(1 8.73097e-05 -8.72665e-05 1.0005 495.864 1569.95)"/><path d="M388.502 387.152C388.076 387.138 387.386 388.23 386.483 390.486 385.451 393.065 384.14 397.167 382.703 402.684 381.267 408.202 379.715 415.148 378.236 423.569 376.757 431.991 375.364 441.907 374.284 453.054 373.295 463.278 372.589 474.535 372.222 486.663 371.856 498.79 371.849 511.792 372.265 525.361 372.886 545.396 374.317 566.695 376.561 588.719 378.804 610.742 381.851 633.47 385.323 656.463 386.031 661.151 386.748 665.734 387.471 670.327 387.754 672.136 388.045 673.886 388.33 675.68L402.676 675.68C401.953 671.072 401.247 666.574 400.529 661.903 399.834 657.359 399.158 652.816 398.467 648.214 395.076 625.643 392.015 603.684 389.575 582.751 387.136 561.818 385.331 541.909 384.249 523.167 383.514 510.514 383.078 498.392 382.96 487.101 382.843 475.81 383.043 465.325 383.433 455.686 384.277 434.711 386.108 417.917 387.428 406.281 388.087 400.463 388.594 395.894 388.845 392.68 389.096 389.465 389.073 387.631 388.673 387.239 388.623 387.19 388.562 387.153 388.501 387.151L388.502 387.151Z" fill="#00892C" fill-rule="evenodd" transform="matrix(1 8.73097e-05 -8.72665e-05 1.0005 495.864 1569.95)"/><path d="M319.013 389.156C318.857 389.093 318.649 389.213 318.498 389.682 318.348 390.15 318.278 391.052 318.241 391.68 318.164 392.789 318.157 394.228 318.241 395.886 318.407 399.162 318.888 403.566 319.579 408.819 320.955 419.261 323.275 433.609 326.064 451.088 331.571 485.579 339.048 532.956 344.851 588.83 347.669 615.992 350.024 645.203 351.645 675.683L368.269 675.683C366.506 642.382 363.536 610.656 359.931 581.575 356.365 552.781 352.176 526.546 347.887 503.344 343.599 480.142 339.227 459.996 335.226 443.41 331.156 426.536 327.523 413.459 324.726 404.295 323.307 399.633 322.143 396.09 321.226 393.569 320.757 392.268 320.363 391.338 320.042 390.625 319.834 389.969 319.587 389.877 319.425 389.678 319.262 389.48 319.168 389.216 319.013 389.153Z" fill="#00892C" fill-rule="evenodd" transform="matrix(1 8.73097e-05 -8.72665e-05 1.0005 495.864 1569.95)"/><path d="M288.806 444.803C287.933 445.404 288.237 452.654 289.365 465.249 290.493 477.845 292.431 495.847 294.691 518.076 296.951 540.305 299.525 566.704 301.478 596.175 303.11 620.803 304.303 647.59 304.485 675.678L318.101 675.678C317.726 645.854 316.066 617.68 313.763 592.138 311.024 561.769 307.438 535.018 303.926 512.986 300.415 490.952 296.986 473.693 294.305 462.002 291.623 450.311 289.68 444.202 288.806 444.802Z" fill="#00892C" fill-rule="evenodd" transform="matrix(1 8.73097e-05 -8.72665e-05 1.0005 495.864 1569.95)"/><path d="M426.621 450.452C425.605 450.452 424.651 456.285 423.721 466.628 422.791 476.97 421.865 491.862 420.959 510.359 420.053 528.854 419.192 550.911 418.519 575.531 417.846 600.151 417.38 627.349 417.644 656.032 417.653 656.984 417.68 657.903 417.69 658.853 417.739 663.802 417.825 668.741 417.921 673.617L432.651 673.617C432.574 668.519 432.479 663.393 432.421 658.194 432.411 657.269 432.384 656.396 432.375 655.467 432.11 627.504 432.125 600.67 432.053 576.188 431.98 551.707 431.835 529.576 431.408 510.922 430.982 492.268 430.307 477.164 429.475 466.722 428.643 456.28 427.637 450.452 426.621 450.452Z" fill="#00892C" fill-rule="evenodd" transform="matrix(1 8.73097e-05 -8.72665e-05 1.0005 495.864 1569.95)"/><path d="M440.141 473.681C439.238 474.252 439.308 480.511 439.926 491.319 440.544 502.127 441.716 517.509 442.933 536.511 444.15 555.514 445.381 578.18 446.369 603.467 447.24 625.745 447.896 650.13 448.388 675.686L462.133 675.686C461.568 649.183 460.504 623.785 458.954 600.659 457.221 574.798 454.919 551.714 452.426 532.651 449.933 513.588 447.259 498.537 445.038 488.424 442.816 478.311 441.044 473.11 440.141 473.682Z" fill="#00892C" fill-rule="evenodd" transform="matrix(1 8.73097e-05 -8.72665e-05 1.0005 495.864 1569.95)"/><path d="M41.8895 639.148 919.959 639.148 919.959 675.683 41.8895 675.683Z" fill="#00892C" transform="matrix(1 8.73097e-05 -8.72665e-05 1.0005 495.864 1569.95)"/><path d="M57.2888 673.684C57.3244 668.16 57.3375 662.634 57.2888 657.011 57.2513 653.064 57.1584 649.066 57.0741 645.077 56.5564 620.578 55.1313 597.037 52.6928 575.489 50.2542 553.942 46.824 534.374 42.6416 517.31 38.8233 501.47 34.3934 487.79 29.9276 476.505 25.4615 465.219 20.9427 456.35 16.9561 449.39 7.94312 437.107 2.78109 428.683 3.25356 426.311 3.754 423.968 9.92114 427.986 20.6071 437.367 25.5122 443.224 31.1176 451.624 36.7581 462.991 42.3981 474.357 48.0412 488.767 52.9518 505.989 58.1199 524.343 62.4388 545.624 65.4944 568.995 68.55 592.366 70.3616 617.785 70.8636 643.936 70.9454 648.194 70.9763 652.463 70.9924 656.66 71.0192 662.412 70.9773 668.048 70.9065 673.683L57.2901 673.683 57.2902 673.683Z" fill="#00892C" fill-rule="evenodd" transform="matrix(1 8.73097e-05 -8.72665e-05 1.0005 495.864 1569.95)"/><path d="M102.084 673.684C102.375 668.212 102.699 662.731 102.943 657.187 104.388 624.319 104.847 592.413 104.432 562.304 103.951 527.055 102.251 494.222 99.9648 464.963 97.6785 435.705 94.827 410.078 92.1763 388.799 89.5257 367.52 87.1231 350.577 85.6478 338.725 84.1723 326.873 83.6152 320.087 84.5596 319.186 85.504 318.286 87.8511 323.355 91.0882 333.928 94.3253 344.501 98.477 360.611 102.714 381.663 106.951 402.715 111.232 428.767 114.741 458.998 118.249 489.228 120.943 523.621 122.014 560.785 122.922 592.465 122.721 626.095 121.212 660.582 121.019 664.989 120.813 669.326 120.582 673.685L102.084 673.685Z" fill="#00892C" fill-rule="evenodd" transform="matrix(1 8.73097e-05 -8.72665e-05 1.0005 495.864 1569.95)"/><path d="M141.137 673.684C144.808 650.55 148.601 628.517 152.09 607.87 155.85 585.624 159.247 564.872 162.013 545.83 163.626 534.704 165.036 524.196 166.179 514.415 167.322 504.633 168.187 495.585 168.842 487.299 169.484 479.112 169.901 471.673 170.174 465.186 170.447 458.698 170.563 453.18 170.646 448.601 170.73 444.022 170.81 440.387 170.947 437.895 171.084 435.403 171.3 434.032 171.677 433.858 172.055 433.685 172.586 434.733 173.181 437.017 173.775 439.302 174.448 442.86 175.071 447.548 175.693 452.235 176.241 458.067 176.617 465.01 176.993 471.953 177.159 479.945 177.047 488.791 176.939 497.731 176.579 507.574 175.887 518.101 175.194 528.627 174.192 539.897 172.923 551.622 170.759 571.663 167.862 593.335 164.461 616.119 161.703 634.596 158.584 653.916 155.484 673.684L141.137 673.684Z" fill="#00892C" fill-rule="evenodd" transform="matrix(1 8.73097e-05 -8.72665e-05 1.0005 495.864 1569.95)"/><path d="M201.187 673.684C201.267 669.543 201.374 665.451 201.445 661.258 201.453 660.844 201.438 660.409 201.445 659.995 202.027 624.604 202.302 590.839 202.631 559.959 202.959 529.078 203.374 501.089 203.971 477.612 204.567 454.137 205.338 435.157 206.29 422.013 207.242 408.869 208.348 401.585 209.486 401.585 210.624 401.585 211.712 408.825 212.733 421.908 213.754 434.991 214.723 453.887 215.62 477.297 216.516 500.706 217.331 528.663 217.836 559.748 218.341 590.833 218.525 625.096 217.939 661.153 217.932 661.576 217.946 661.995 217.939 662.417 217.877 666.215 217.762 669.923 217.682 673.685L201.188 673.685Z" fill="#00892C" fill-rule="evenodd" transform="matrix(1 8.73097e-05 -8.72665e-05 1.0005 495.864 1569.95)"/><path d="M244.353 673.684C244.701 655.968 245.44 638.973 246.581 623.406 247.962 604.546 249.905 587.761 252.062 574.066 254.218 560.37 256.554 549.747 258.497 542.714 260.44 535.681 261.953 532.22 262.67 532.817 263.387 533.414 263.244 538.021 262.599 545.748 261.955 553.475 260.854 564.343 259.77 577.894 258.687 591.445 257.646 607.665 256.906 625.862 256.305 640.636 255.925 656.778 255.669 673.684L244.353 673.684Z" fill="#00892C" fill-rule="evenodd" transform="matrix(1 8.73097e-05 -8.72665e-05 1.0005 495.864 1569.95)"/><path d="M388.502 387.152C388.076 387.138 387.386 388.23 386.483 390.486 385.451 393.065 384.14 397.167 382.703 402.684 381.267 408.202 379.715 415.148 378.236 423.569 376.757 431.991 375.364 441.907 374.284 453.054 373.295 463.278 372.589 474.535 372.222 486.663 371.856 498.79 371.849 511.792 372.265 525.361 372.886 545.396 374.317 566.695 376.561 588.719 378.804 610.742 381.851 633.47 385.323 656.463 386.031 661.151 386.748 665.734 387.471 670.327 387.754 672.136 388.045 673.886 388.33 675.68L402.676 675.68C401.953 671.072 401.247 666.574 400.529 661.903 399.834 657.359 399.158 652.816 398.467 648.214 395.076 625.643 392.015 603.684 389.575 582.751 387.136 561.818 385.331 541.909 384.249 523.167 383.514 510.514 383.078 498.392 382.96 487.101 382.843 475.81 383.043 465.325 383.433 455.686 384.277 434.711 386.108 417.917 387.428 406.281 388.087 400.463 388.594 395.894 388.845 392.68 389.096 389.465 389.073 387.631 388.673 387.239 388.623 387.19 388.562 387.153 388.501 387.151L388.502 387.151Z" fill="#00892C" fill-rule="evenodd" transform="matrix(1 8.73097e-05 -8.72665e-05 1.0005 495.864 1569.95)"/><path d="M319.013 389.156C318.857 389.093 318.649 389.213 318.498 389.682 318.348 390.15 318.278 391.052 318.241 391.68 318.164 392.789 318.157 394.228 318.241 395.886 318.407 399.162 318.888 403.566 319.579 408.819 320.955 419.261 323.275 433.609 326.064 451.088 331.571 485.579 339.048 532.956 344.851 588.83 347.669 615.992 350.024 645.203 351.645 675.683L368.269 675.683C366.506 642.382 363.536 610.656 359.931 581.575 356.365 552.781 352.176 526.546 347.887 503.344 343.599 480.142 339.227 459.996 335.226 443.41 331.156 426.536 327.523 413.459 324.726 404.295 323.307 399.633 322.143 396.09 321.226 393.569 320.757 392.268 320.363 391.338 320.042 390.625 319.834 389.969 319.587 389.877 319.425 389.678 319.262 389.48 319.168 389.216 319.013 389.153Z" fill="#00892C" fill-rule="evenodd" transform="matrix(1 8.73097e-05 -8.72665e-05 1.0005 495.864 1569.95)"/><path d="M288.806 444.803C287.933 445.404 288.237 452.654 289.365 465.249 290.493 477.845 292.431 495.847 294.691 518.076 296.951 540.305 299.525 566.704 301.478 596.175 303.11 620.803 304.303 647.59 304.485 675.678L318.101 675.678C317.726 645.854 316.066 617.68 313.763 592.138 311.024 561.769 307.438 535.018 303.926 512.986 300.415 490.952 296.986 473.693 294.305 462.002 291.623 450.311 289.68 444.202 288.806 444.802Z" fill="#00892C" fill-rule="evenodd" transform="matrix(1 8.73097e-05 -8.72665e-05 1.0005 495.864 1569.95)"/><path d="M426.621 450.452C425.605 450.452 424.651 456.285 423.721 466.628 422.791 476.97 421.865 491.862 420.959 510.359 420.053 528.854 419.192 550.911 418.519 575.531 417.846 600.151 417.38 627.349 417.644 656.032 417.653 656.984 417.68 657.903 417.69 658.853 417.739 663.802 417.825 668.741 417.921 673.617L432.651 673.617C432.574 668.519 432.479 663.393 432.421 658.194 432.411 657.269 432.384 656.396 432.375 655.467 432.11 627.504 432.125 600.67 432.053 576.188 431.98 551.707 431.835 529.576 431.408 510.922 430.982 492.268 430.307 477.164 429.475 466.722 428.643 456.28 427.637 450.452 426.621 450.452Z" fill="#00892C" fill-rule="evenodd" transform="matrix(1 8.73097e-05 -8.72665e-05 1.0005 495.864 1569.95)"/><path d="M440.141 473.681C439.238 474.252 439.308 480.511 439.926 491.319 440.544 502.127 441.716 517.509 442.933 536.511 444.15 555.514 445.381 578.18 446.369 603.467 447.24 625.745 447.896 650.13 448.388 675.686L462.133 675.686C461.568 649.183 460.504 623.785 458.954 600.659 457.221 574.798 454.919 551.714 452.426 532.651 449.933 513.588 447.259 498.537 445.038 488.424 442.816 478.311 441.044 473.11 440.141 473.682Z" fill="#00892C" fill-rule="evenodd" transform="matrix(1 8.73097e-05 -8.72665e-05 1.0005 495.864 1569.95)"/><path d="M68.3674 645.544C68.4039 639.872 68.4174 634.195 68.3674 628.422 68.3289 624.369 68.2334 620.263 68.1468 616.166 67.6152 591.007 66.1516 566.83 63.6474 544.702 61.1431 522.574 57.6204 502.478 53.3252 484.954 49.4039 468.688 44.8546 454.64 40.2685 443.049 35.682 431.46 31.0414 422.351 26.9471 415.203 17.6911 402.589 12.3899 393.939 12.8759 391.502 13.3898 389.096 19.7232 393.223 30.6967 402.857 35.7341 408.871 41.4907 417.499 47.2828 429.171 53.0748 440.844 58.8702 455.643 63.9126 473.329 69.2201 492.177 73.6552 514.032 76.7927 538.033 79.9306 562.034 81.791 588.137 82.3066 614.994 82.3906 619.367 82.4224 623.751 82.4389 628.061 82.4664 633.968 82.4233 639.756 82.3506 645.543L68.3677 645.543 68.3678 645.543Z" fill="#00892C" fill-rule="evenodd" transform="matrix(1 8.73097e-05 -8.72665e-05 1.0005 495.864 1569.95)"/><path d="M114.368 645.544C114.667 639.924 115 634.296 115.25 628.603 116.734 594.849 117.205 562.083 116.779 531.162 116.285 494.962 114.54 461.245 112.192 431.197 109.844 401.149 106.915 374.833 104.193 352.98 101.471 331.127 99.004 313.728 97.4887 301.556 95.9735 289.384 95.4015 282.415 96.3713 281.49 97.3412 280.565 99.7516 285.771 103.076 296.629 106.4 307.486 110.664 324.031 115.015 345.65 119.366 367.269 123.763 394.023 127.366 425.069 130.969 456.114 133.736 491.433 134.835 529.603 135.768 562.137 135.561 596.674 134.012 632.091 133.814 636.617 133.602 641.07 133.365 645.547L114.368 645.547Z" fill="#00892C" fill-rule="evenodd" transform="matrix(1 8.73097e-05 -8.72665e-05 1.0005 495.864 1569.95)"/><path d="M154.47 645.544C158.24 621.786 162.136 599.158 165.719 577.956 169.581 555.11 173.069 533.799 175.909 514.243 177.565 502.817 179.014 492.027 180.188 481.982 181.362 471.936 182.25 462.645 182.923 454.135 183.581 445.727 184.01 438.088 184.29 431.426 184.571 424.763 184.69 419.096 184.775 414.393 184.861 409.691 184.943 405.958 185.084 403.399 185.225 400.839 185.446 399.431 185.834 399.253 186.222 399.075 186.767 400.151 187.378 402.497 187.989 404.843 188.679 408.497 189.319 413.311 189.958 418.126 190.52 424.114 190.907 431.245 191.294 438.375 191.464 446.582 191.348 455.667 191.238 464.848 190.868 474.956 190.157 485.765 189.446 496.575 188.417 508.151 187.113 520.19 184.891 540.771 181.916 563.028 178.423 586.427 175.591 605.401 172.388 625.243 169.204 645.544L154.47 645.544Z" fill="#00892C" fill-rule="evenodd" transform="matrix(1 8.73097e-05 -8.72665e-05 1.0005 495.864 1569.95)"/><path d="M216.14 645.544C216.222 641.292 216.332 637.089 216.405 632.783 216.413 632.358 216.398 631.911 216.405 631.486 217.002 595.141 217.285 560.466 217.622 528.752 217.959 497.039 218.386 468.295 218.999 444.187 219.611 420.078 220.403 400.587 221.38 387.089 222.358 373.591 223.494 366.109 224.662 366.109 225.831 366.109 226.949 373.545 227.997 386.981 229.046 400.417 230.041 419.822 230.961 443.863 231.882 467.904 232.719 496.613 233.238 528.537 233.756 560.46 233.945 595.646 233.343 632.677 233.337 633.111 233.35 633.541 233.343 633.975 233.28 637.875 233.161 641.683 233.079 645.545L216.141 645.545 216.141 645.545Z" fill="#00892C" fill-rule="evenodd" transform="matrix(1 8.73097e-05 -8.72665e-05 1.0005 495.864 1569.95)"/><path d="M260.479 645.544C260.836 627.351 261.596 609.896 262.767 593.91 264.186 574.542 266.181 557.305 268.396 543.24 270.61 529.175 273.009 518.266 275.005 511.043 277 503.82 278.554 500.265 279.29 500.879 280.026 501.492 279.879 506.224 279.217 514.159 278.555 522.094 277.424 533.256 276.312 547.172 275.2 561.089 274.131 577.746 273.371 596.432 272.754 611.605 272.364 628.182 272.1 645.544L260.479 645.544Z" fill="#00892C" fill-rule="evenodd" transform="matrix(1 8.73097e-05 -8.72665e-05 1.0005 495.864 1569.95)"/><path d="M408.512 351.296C408.074 351.283 407.366 352.404 406.438 354.721 405.378 357.369 404.032 361.581 402.556 367.247 401.081 372.913 399.488 380.046 397.969 388.695 396.45 397.343 395.02 407.527 393.91 418.974 392.895 429.473 392.17 441.035 391.793 453.489 391.417 465.943 391.409 479.295 391.837 493.231 392.475 513.806 393.944 535.678 396.248 558.297 398.552 580.914 401.681 604.254 405.247 627.867 405.974 632.682 406.711 637.389 407.453 642.106 407.743 643.963 408.042 645.76 408.335 647.603L423.069 647.603C422.326 642.87 421.6 638.251 420.863 633.455 420.149 628.788 419.456 624.123 418.746 619.396 415.263 596.216 412.12 573.665 409.614 552.169 407.109 530.672 405.256 510.226 404.145 490.979 403.39 477.983 402.942 465.536 402.821 453.941 402.701 442.345 402.906 431.578 403.307 421.678 404.174 400.139 406.054 382.891 407.409 370.942 408.086 364.968 408.607 360.276 408.865 356.974 409.122 353.673 409.099 351.79 408.688 351.387 408.637 351.337 408.574 351.299 408.512 351.297L408.512 351.297Z" fill="#00892C" fill-rule="evenodd" transform="matrix(1 8.73097e-05 -8.72665e-05 1.0005 495.864 1569.95)"/><path d="M337.154 353.342C336.994 353.277 336.779 353.401 336.625 353.882 336.471 354.363 336.398 355.29 336.361 355.934 336.282 357.073 336.275 358.551 336.361 360.253 336.531 363.618 337.025 368.14 337.735 373.535 339.148 384.259 341.53 398.995 344.395 416.945 350.051 452.367 357.729 501.019 363.688 558.404 366.582 586.3 369.001 616.297 370.665 647.599L387.739 647.599C385.928 613.401 382.877 580.819 379.176 550.954 375.514 521.384 371.211 494.442 366.808 470.614 362.403 446.787 357.914 426.096 353.805 409.064 349.626 391.735 345.894 378.307 343.022 368.894 341.565 364.106 340.37 360.468 339.428 357.88 338.947 356.543 338.542 355.588 338.212 354.856 337.998 354.183 337.744 354.088 337.578 353.884 337.412 353.68 337.315 353.41 337.155 353.344Z" fill="#00892C" fill-rule="evenodd" transform="matrix(1 8.73097e-05 -8.72665e-05 1.0005 495.864 1569.95)"/><path d="M306.127 410.505C305.23 411.122 305.541 418.568 306.7 431.502 307.859 444.437 309.849 462.925 312.17 485.754 314.491 508.582 317.134 535.692 319.14 565.958 320.816 591.25 322.041 618.759 322.227 647.604L336.21 647.604C335.825 616.977 334.12 588.043 331.755 561.813 328.943 530.625 325.26 503.153 321.653 480.527 318.047 457.899 314.526 440.175 311.772 428.168 309.019 416.162 307.023 409.888 306.126 410.505Z" fill="#00892C" fill-rule="evenodd" transform="matrix(1 8.73097e-05 -8.72665e-05 1.0005 495.864 1569.95)"/><path d="M447.659 416.299C446.615 416.299 445.636 422.29 444.68 432.911 443.725 443.531 442.774 458.825 441.844 477.82 440.914 496.815 440.03 519.465 439.338 544.749 438.647 570.033 438.169 597.964 438.44 627.42 438.448 628.398 438.477 629.342 438.487 630.317 438.537 635.4 438.625 640.472 438.724 645.48L453.851 645.48C453.771 640.244 453.675 634.981 453.615 629.64 453.605 628.69 453.576 627.794 453.568 626.84 453.296 598.123 453.311 570.565 453.237 545.424 453.162 520.283 453.013 497.555 452.575 478.398 452.136 459.242 451.443 443.731 450.589 433.006 449.735 422.283 448.702 416.299 447.658 416.299Z" fill="#00892C" fill-rule="evenodd" transform="matrix(1 8.73097e-05 -8.72665e-05 1.0005 495.864 1569.95)"/><path d="M461.532 440.151C460.604 440.738 460.676 447.165 461.311 458.265 461.946 469.364 463.149 485.161 464.399 504.676 465.649 524.19 466.913 547.467 467.928 573.435 468.822 596.314 469.496 621.357 470.001 647.602L484.117 647.602C483.536 620.384 482.444 594.302 480.853 570.552 479.073 543.994 476.708 520.288 474.148 500.711 471.587 481.134 468.842 465.677 466.56 455.292 464.279 444.907 462.459 439.565 461.532 440.152Z" fill="#00892C" fill-rule="evenodd" transform="matrix(1 8.73097e-05 -8.72665e-05 1.0005 495.864 1569.95)"/><path d="M95.976 654.256C96.0075 649.367 96.0191 644.474 95.976 639.496 95.9428 636.003 95.8605 632.463 95.7859 628.932 95.3277 607.246 94.0661 586.406 91.9075 567.332 89.7489 548.258 86.7125 530.936 83.0101 515.83 79.63 501.809 75.7087 489.699 71.755 479.709 67.8016 469.718 63.8014 461.867 60.2715 455.705 52.2931 444.832 47.7236 437.376 48.1421 435.276 48.5851 433.202 54.0444 436.759 63.504 445.063 67.8461 450.248 72.8082 457.685 77.8005 467.746 82.7931 477.807 87.7888 490.564 92.1354 505.809 96.7104 522.056 100.533 540.894 103.238 561.583 105.943 582.271 107.546 604.773 107.991 627.921 108.063 631.691 108.091 635.47 108.105 639.185 108.128 644.277 108.091 649.265 108.029 654.255L95.9751 654.255 95.9752 654.255 95.9752 654.255Z" fill="#00892C" fill-rule="evenodd" transform="matrix(1 8.73097e-05 -8.72665e-05 1.0005 495.864 1569.95)"/><path d="M135.634 654.256C135.892 649.412 136.179 644.561 136.394 639.653 137.674 610.559 138.08 582.314 137.713 555.661 137.287 524.459 135.782 495.394 133.758 469.494 131.734 443.593 129.21 420.909 126.864 402.073 124.517 383.236 122.391 368.238 121.085 357.746 119.779 347.254 119.285 341.247 120.121 340.451 120.957 339.654 123.035 344.141 125.901 353.5 128.766 362.859 132.441 377.12 136.192 395.755 139.942 414.39 143.732 437.452 146.837 464.213 149.943 490.973 152.328 521.417 153.276 554.316 154.08 582.358 153.902 612.129 152.566 642.657 152.395 646.559 152.213 650.398 152.008 654.257L135.634 654.257Z" fill="#00892C" fill-rule="evenodd" transform="matrix(1 8.73097e-05 -8.72665e-05 1.0005 495.864 1569.95)"/><path d="M170.202 654.256C173.451 633.777 176.809 614.272 179.898 595.996 183.226 576.303 186.233 557.933 188.681 541.077 190.109 531.228 191.358 521.927 192.369 513.268 193.381 504.609 194.147 496.6 194.727 489.265 195.295 482.017 195.664 475.432 195.906 469.689 196.147 463.946 196.25 459.061 196.324 455.007 196.398 450.954 196.469 447.737 196.59 445.53 196.711 443.325 196.902 442.111 197.236 441.957 197.571 441.804 198.041 442.732 198.567 444.754 199.094 446.776 199.689 449.925 200.24 454.075 200.791 458.225 201.276 463.388 201.609 469.534 201.942 475.679 202.089 482.754 201.989 490.585 201.894 498.499 201.576 507.211 200.963 516.53 200.35 525.848 199.462 535.825 198.339 546.204 196.423 563.944 193.859 583.129 190.848 603.299 188.407 619.655 185.646 636.757 182.902 654.256L170.202 654.256Z" fill="#00892C" fill-rule="evenodd" transform="matrix(1 8.73097e-05 -8.72665e-05 1.0005 495.864 1569.95)"/><path d="M223.357 654.256C223.428 650.591 223.522 646.968 223.585 643.256 223.592 642.89 223.58 642.505 223.585 642.138 224.1 610.81 224.344 580.92 224.634 553.583 224.925 526.248 225.293 501.471 225.821 480.69 226.349 459.909 227.031 443.107 227.874 431.472 228.717 419.837 229.695 413.389 230.703 413.389 231.71 413.389 232.673 419.798 233.577 431.379 234.481 442.96 235.339 459.687 236.133 480.409 236.926 501.133 237.647 525.879 238.095 553.397 238.542 580.914 238.704 611.243 238.186 643.162 238.18 643.536 238.191 643.907 238.186 644.281 238.131 647.643 238.029 650.925 237.958 654.255L223.357 654.255Z" fill="#00892C" fill-rule="evenodd" transform="matrix(1 8.73097e-05 -8.72665e-05 1.0005 495.864 1569.95)"/><path d="M261.57 654.256C261.877 638.574 262.532 623.529 263.542 609.749 264.765 593.054 266.484 578.195 268.393 566.072 270.302 553.949 272.37 544.545 274.09 538.319 275.81 532.093 277.149 529.03 277.784 529.558 278.419 530.087 278.292 534.165 277.721 541.005 277.15 547.845 276.176 557.466 275.217 569.462 274.258 581.458 273.337 595.815 272.682 611.924 272.15 625.001 271.814 639.292 271.586 654.257L261.57 654.257Z" fill="#00892C" fill-rule="evenodd" transform="matrix(1 8.73097e-05 -8.72665e-05 1.0005 495.864 1569.95)"/><path d="M389.177 400.62C388.8 400.609 388.189 401.575 387.39 403.572 386.476 405.854 385.315 409.485 384.044 414.369 382.772 419.253 381.398 425.402 380.089 432.856 378.78 440.311 377.547 449.089 376.591 458.956 375.716 468.006 375.091 477.972 374.766 488.707 374.441 499.443 374.435 510.951 374.804 522.963 375.354 540.698 376.62 559.552 378.606 579.048 380.592 598.543 383.289 618.663 386.363 639.017 386.99 643.167 387.625 647.224 388.264 651.29 388.515 652.891 388.773 654.44 389.025 656.029L401.724 656.029C401.084 651.95 400.459 647.968 399.823 643.833 399.208 639.811 398.61 635.789 397.998 631.715 394.996 611.734 392.287 592.296 390.127 573.766 387.967 555.237 386.37 537.612 385.412 521.021 384.761 509.82 384.375 499.09 384.271 489.095 384.168 479.1 384.344 469.818 384.69 461.286 385.437 442.718 387.058 427.853 388.226 417.552 388.81 412.402 389.259 408.357 389.481 405.512 389.703 402.666 389.683 401.043 389.329 400.696 389.284 400.653 389.23 400.62 389.176 400.618L389.177 400.618Z" fill="#00892C" fill-rule="evenodd" transform="matrix(1 8.73097e-05 -8.72665e-05 1.0005 495.864 1569.95)"/><path d="M327.663 402.385C327.525 402.329 327.34 402.436 327.207 402.851 327.074 403.265 327.012 404.064 326.979 404.619 326.911 405.601 326.905 406.875 326.979 408.342 327.126 411.243 327.552 415.141 328.164 419.791 329.382 429.035 331.435 441.737 333.905 457.209 338.78 487.741 345.398 529.679 350.534 579.146 353.029 603.191 355.114 629.049 356.549 656.031L371.265 656.031C369.703 626.552 367.074 598.468 363.884 572.724 360.727 547.235 357.018 524.011 353.223 503.473 349.426 482.935 345.557 465.1 342.014 450.418 338.412 435.481 335.195 423.905 332.72 415.793 331.464 411.666 330.433 408.529 329.621 406.298 329.207 405.147 328.858 404.323 328.574 403.692 328.389 403.112 328.17 403.03 328.027 402.855 327.883 402.679 327.8 402.445 327.662 402.389Z" fill="#00892C" fill-rule="evenodd" transform="matrix(1 8.73097e-05 -8.72665e-05 1.0005 495.864 1569.95)"/><path d="M300.924 451.657C300.151 452.188 300.42 458.606 301.419 469.756 302.417 480.905 304.133 496.841 306.134 516.518 308.134 536.196 310.413 559.565 312.141 585.653 313.586 607.454 314.643 631.167 314.803 656.031L326.856 656.031C326.525 629.631 325.055 604.69 323.016 582.08 320.592 555.197 317.417 531.518 314.309 512.013 311.2 492.509 308.165 477.23 305.792 466.88 303.418 456.531 301.698 451.124 300.924 451.655Z" fill="#00892C" fill-rule="evenodd" transform="matrix(1 8.73097e-05 -8.72665e-05 1.0005 495.864 1569.95)"/><path d="M422.914 456.651C422.014 456.651 421.17 461.815 420.347 470.969 419.523 480.124 418.704 493.307 417.902 509.681 417.1 526.054 416.338 545.578 415.742 567.372 415.146 589.166 414.734 613.243 414.968 638.633 414.975 639.476 414.999 640.289 415.008 641.13 415.052 645.511 415.128 649.883 415.212 654.2L428.252 654.2C428.184 649.687 428.1 645.15 428.049 640.547 428.04 639.728 428.016 638.955 428.008 638.133 427.773 613.38 427.787 589.626 427.723 567.955 427.659 546.283 427.53 526.692 427.152 510.18 426.774 493.667 426.177 480.297 425.441 471.053 424.704 461.809 423.814 456.651 422.914 456.651Z" fill="#00892C" fill-rule="evenodd" transform="matrix(1 8.73097e-05 -8.72665e-05 1.0005 495.864 1569.95)"/><path d="M434.876 477.211C434.077 477.717 434.139 483.257 434.686 492.824 435.233 502.392 436.27 516.008 437.348 532.829 438.425 549.65 439.515 569.715 440.39 592.098 441.16 611.819 441.741 633.405 442.177 656.029L454.344 656.029C453.844 632.567 452.902 610.085 451.531 589.612 449.997 566.719 447.958 546.286 445.751 529.411 443.544 512.536 441.178 499.213 439.211 490.261 437.245 481.309 435.676 476.704 434.876 477.21Z" fill="#00892C" fill-rule="evenodd" transform="matrix(1 8.73097e-05 -8.72665e-05 1.0005 495.864 1569.95)"/><path d="M292.607 654.256C292.349 649.412 292.062 644.561 291.846 639.653 290.567 610.559 290.161 582.314 290.528 555.661 290.954 524.459 292.459 495.394 294.483 469.494 296.507 443.593 299.031 420.909 301.377 402.073 303.724 383.236 305.85 368.238 307.156 357.746 308.463 347.254 308.956 341.247 308.12 340.451 307.284 339.654 305.206 344.141 302.34 353.5 299.475 362.859 295.8 377.12 292.049 395.755 288.299 414.39 284.509 437.452 281.404 464.213 278.298 490.973 275.913 521.417 274.965 554.316 274.161 582.358 274.339 612.129 275.675 642.657 275.846 646.559 276.029 650.398 276.233 654.257L292.607 654.257Z" fill="#00892C" fill-rule="evenodd" transform="matrix(1 8.73097e-05 -8.72665e-05 1.0005 495.864 1569.95)"/><path d="M243.865 400.62C244.242 400.609 244.853 401.575 245.652 403.572 246.566 405.854 247.727 409.485 248.998 414.369 250.27 419.253 251.644 425.402 252.953 432.856 254.262 440.311 255.495 449.089 256.451 458.956 257.326 468.006 257.951 477.972 258.276 488.707 258.6 499.443 258.607 510.951 258.238 522.963 257.688 540.698 256.422 559.552 254.436 579.048 252.45 598.543 249.753 618.663 246.679 639.017 246.052 643.167 245.417 647.224 244.778 651.29 244.527 652.891 244.269 654.44 244.017 656.029L231.318 656.029C231.958 651.95 232.583 647.968 233.219 643.833 233.834 639.811 234.432 635.789 235.044 631.715 238.046 611.734 240.755 592.296 242.915 573.766 245.075 555.237 246.672 537.612 247.63 521.021 248.28 509.82 248.667 499.09 248.77 489.095 248.874 479.1 248.698 469.818 248.352 461.286 247.605 442.718 245.984 427.853 244.816 417.552 244.232 412.402 243.783 408.357 243.561 405.512 243.339 402.666 243.359 401.043 243.713 400.696 243.758 400.653 243.812 400.62 243.865 400.618L243.865 400.618Z" fill="#00892C" fill-rule="evenodd" transform="matrix(1 8.73097e-05 -8.72665e-05 1.0005 495.864 1569.95)"/><path d="M422.218 416.424C422.356 416.368 422.541 416.475 422.674 416.889 422.807 417.304 422.869 418.103 422.902 418.658 422.97 419.64 422.976 420.914 422.902 422.381 422.755 425.281 422.329 429.18 421.717 433.83 420.5 443.074 418.446 455.775 415.976 471.248 411.102 501.78 404.484 543.718 399.347 593.186 396.852 617.231 394.767 643.088 393.333 670.069L378.616 670.069C380.178 640.592 382.807 612.506 385.997 586.764 389.154 561.274 392.863 538.051 396.659 517.513 400.455 496.974 404.324 479.14 407.867 464.457 411.469 449.521 414.686 437.945 417.161 429.831 418.417 425.705 419.448 422.568 420.26 420.337 420.675 419.185 421.023 418.362 421.308 417.731 421.492 417.15 421.711 417.069 421.854 416.893 421.998 416.718 422.081 416.484 422.219 416.428Z" fill="#00892C" fill-rule="evenodd" transform="matrix(1 8.73097e-05 -8.72665e-05 1.0005 495.864 1569.95)"/><path d="M484.688 451.657C485.461 452.188 485.192 458.606 484.193 469.756 483.195 480.905 481.479 496.841 479.478 516.518 477.478 536.196 475.199 559.565 473.471 585.653 472.026 607.454 470.969 631.167 470.809 656.031L458.756 656.031C459.087 629.631 460.557 604.69 462.596 582.08 465.02 555.197 468.195 531.518 471.303 512.013 474.412 492.509 477.447 477.23 479.82 466.88 482.194 456.531 483.914 451.124 484.687 451.655Z" fill="#00892C" fill-rule="evenodd" transform="matrix(1 8.73097e-05 -8.72665e-05 1.0005 495.864 1569.95)"/><path d="M181.261 448.23C182.16 448.23 183.005 453.394 183.828 462.549 184.651 471.704 185.471 484.887 186.273 501.26 187.075 517.633 187.837 537.157 188.433 558.952 189.028 580.746 189.441 604.823 189.207 630.212 189.2 631.056 189.175 631.869 189.166 632.71 189.123 637.091 189.047 641.463 188.962 645.78L175.922 645.78C175.991 641.267 176.075 636.73 176.126 632.127 176.134 631.308 176.159 630.535 176.167 629.713 176.401 604.96 176.388 581.206 176.452 559.535 176.516 537.864 176.645 518.273 177.023 501.76 177.4 485.247 177.998 471.877 178.734 462.634 179.47 453.39 180.361 448.231 181.261 448.231Z" fill="#00892C" fill-rule="evenodd" transform="matrix(1 8.73097e-05 -8.72665e-05 1.0005 495.864 1569.95)"/><path d="M271.019 465.976C271.818 466.482 271.756 472.022 271.209 481.589 270.662 491.157 269.625 504.773 268.547 521.594 267.47 538.415 266.38 558.479 265.505 580.863 264.735 600.584 264.154 622.17 263.718 644.793L251.551 644.793C252.051 621.332 252.993 598.85 254.364 578.377 255.898 555.484 257.937 535.05 260.144 518.176 262.351 501.301 264.717 487.977 266.684 479.025 268.65 470.074 270.219 465.469 271.019 465.975Z" fill="#00892C" fill-rule="evenodd" transform="matrix(1 8.73097e-05 -8.72665e-05 1.0005 495.864 1569.95)"/><path d="M469.641 673.684C469.677 668.16 469.69 662.634 469.641 657.011 469.604 653.064 469.511 649.066 469.427 645.077 468.909 620.578 467.484 597.037 465.045 575.489 462.607 553.942 459.177 534.374 454.994 517.31 451.176 501.47 446.746 487.79 442.28 476.505 437.814 465.219 433.295 456.35 429.309 449.39 420.296 437.107 415.134 428.683 415.606 426.311 416.107 423.968 422.274 427.986 432.96 437.367 437.865 443.224 443.47 451.624 449.111 462.991 454.751 474.357 460.394 488.767 465.304 505.989 470.472 524.343 474.791 545.624 477.847 568.995 480.903 592.366 482.714 617.785 483.216 643.936 483.298 648.194 483.329 652.463 483.345 656.66 483.372 662.412 483.33 668.048 483.259 673.683L469.643 673.683 469.643 673.683Z" fill="#00892C" fill-rule="evenodd" transform="matrix(1 8.73097e-05 -8.72665e-05 1.0005 495.864 1569.95)"/><path d="M514.437 673.684C514.728 668.212 515.053 662.731 515.296 657.187 516.742 624.319 517.2 592.413 516.785 562.304 516.305 527.055 514.605 494.222 512.319 464.963 510.032 435.705 507.181 410.078 504.53 388.799 501.879 367.52 499.477 350.577 498.001 338.725 496.526 326.873 495.969 320.087 496.913 319.186 497.858 318.286 500.205 323.355 503.442 333.928 506.679 344.501 510.831 360.611 515.068 381.663 519.304 402.715 523.586 428.767 527.094 458.998 530.602 489.228 533.297 523.621 534.367 560.785 535.276 592.465 535.075 626.095 533.566 660.582 533.373 664.989 533.167 669.326 532.936 673.685L514.438 673.685Z" fill="#00892C" fill-rule="evenodd" transform="matrix(1 8.73097e-05 -8.72665e-05 1.0005 495.864 1569.95)"/><path d="M553.491 673.684C557.161 650.55 560.955 628.517 564.444 607.87 568.204 585.624 571.601 564.872 574.366 545.83 575.979 534.704 577.39 524.196 578.533 514.415 579.676 504.633 580.541 495.585 581.196 487.299 581.837 479.112 582.254 471.673 582.527 465.186 582.8 458.698 582.917 453.18 583 448.601 583.083 444.022 583.163 440.387 583.301 437.895 583.438 435.403 583.653 434.032 584.031 433.858 584.409 433.685 584.94 434.733 585.534 437.017 586.129 439.302 586.802 442.86 587.424 447.548 588.047 452.235 588.594 458.067 588.971 465.01 589.347 471.953 589.513 479.945 589.4 488.791 589.293 497.731 588.933 507.574 588.24 518.101 587.548 528.627 586.546 539.897 585.277 551.622 583.113 571.663 580.216 593.335 576.815 616.119 574.057 634.596 570.938 653.916 567.837 673.684L553.491 673.684Z" fill="#00892C" fill-rule="evenodd" transform="matrix(1 8.73097e-05 -8.72665e-05 1.0005 495.864 1569.95)"/><path d="M755.374 673.684C755.294 669.543 755.188 665.451 755.116 661.258 755.108 660.844 755.123 660.409 755.116 659.995 754.535 624.604 754.259 590.839 753.931 559.959 753.603 529.078 753.187 501.089 752.591 477.612 751.994 454.137 751.223 435.157 750.271 422.013 749.319 408.869 748.214 401.585 747.075 401.585 745.937 401.585 744.849 408.825 743.828 421.908 742.807 434.991 741.838 453.887 740.942 477.297 740.045 500.706 739.231 528.663 738.725 559.748 738.22 590.833 738.037 625.096 738.622 661.153 738.629 661.576 738.615 661.995 738.622 662.417 738.684 666.215 738.8 669.923 738.88 673.685L755.374 673.685Z" fill="#00892C" fill-rule="evenodd" transform="matrix(1 8.73097e-05 -8.72665e-05 1.0005 495.864 1569.95)"/><path d="M712.208 673.684C711.861 655.968 711.121 638.973 709.981 623.406 708.599 604.546 706.656 587.761 704.5 574.066 702.343 560.37 700.007 549.747 698.064 542.714 696.121 535.681 694.609 532.22 693.892 532.817 693.175 533.414 693.317 538.021 693.962 545.748 694.607 553.475 695.708 564.343 696.791 577.894 697.874 591.445 698.915 607.665 699.655 625.862 700.256 640.636 700.636 656.778 700.893 673.684L712.208 673.684Z" fill="#00892C" fill-rule="evenodd" transform="matrix(1 8.73097e-05 -8.72665e-05 1.0005 495.864 1569.95)"/><path d="M800.866 387.152C800.44 387.138 799.75 388.23 798.847 390.486 797.815 393.065 796.504 397.167 795.067 402.684 793.631 408.202 792.079 415.148 790.6 423.569 789.121 431.991 787.728 441.907 786.648 453.054 785.659 463.278 784.953 474.535 784.586 486.663 784.22 498.79 784.213 511.792 784.629 525.361 785.25 545.396 786.681 566.695 788.925 588.719 791.168 610.742 794.215 633.47 797.687 656.463 798.395 661.151 799.112 665.734 799.835 670.327 800.118 672.136 800.409 673.886 800.694 675.68L815.04 675.68C814.318 671.072 813.611 666.574 812.893 661.903 812.198 657.359 811.522 652.816 810.831 648.214 807.44 625.643 804.379 603.684 801.939 582.751 799.5 561.818 797.695 541.909 796.613 523.167 795.878 510.514 795.442 498.392 795.324 487.101 795.207 475.81 795.406 465.325 795.797 455.686 796.641 434.711 798.473 417.917 799.792 406.281 800.451 400.463 800.958 395.894 801.209 392.68 801.46 389.465 801.437 387.631 801.037 387.239 800.987 387.19 800.926 387.153 800.865 387.151L800.866 387.151Z" fill="#00892C" fill-rule="evenodd" transform="matrix(1 8.73097e-05 -8.72665e-05 1.0005 495.864 1569.95)"/><path d="M637.538 389.156C637.694 389.093 637.903 389.213 638.053 389.682 638.203 390.15 638.274 391.052 638.31 391.68 638.387 392.789 638.394 394.228 638.31 395.886 638.144 399.162 637.663 403.566 636.972 408.819 635.596 419.261 633.276 433.609 630.487 451.088 624.98 485.579 617.503 532.956 611.7 588.83 608.882 615.992 606.527 645.203 604.906 675.683L588.282 675.683C590.045 642.382 593.015 610.656 596.62 581.575 600.185 552.781 604.375 526.546 608.664 503.344 612.952 480.142 617.324 459.996 621.325 443.41 625.395 426.536 629.028 413.459 631.825 404.295 633.244 399.633 634.408 396.09 635.325 393.569 635.794 392.268 636.188 391.338 636.509 390.625 636.717 389.969 636.964 389.877 637.126 389.678 637.289 389.48 637.383 389.216 637.538 389.153Z" fill="#00892C" fill-rule="evenodd" transform="matrix(1 8.73097e-05 -8.72665e-05 1.0005 495.864 1569.95)"/><path d="M667.745 444.803C668.618 445.404 668.315 452.654 667.186 465.249 666.058 477.845 664.12 495.847 661.86 518.076 659.6 540.305 657.026 566.704 655.073 596.175 653.441 620.803 652.248 647.59 652.067 675.678L638.45 675.678C638.825 645.854 640.485 617.68 642.789 592.138 645.527 561.769 649.113 535.018 652.625 512.986 656.137 490.952 659.566 473.693 662.247 462.002 664.928 450.311 666.871 444.202 667.745 444.802Z" fill="#00892C" fill-rule="evenodd" transform="matrix(1 8.73097e-05 -8.72665e-05 1.0005 495.864 1569.95)"/><path d="M838.975 450.452C837.958 450.452 837.005 456.285 836.075 466.628 835.144 476.97 834.218 491.862 833.312 510.359 832.407 528.854 831.546 550.911 830.873 575.531 830.2 600.151 829.734 627.349 829.998 656.032 830.006 656.984 830.034 657.903 830.044 658.853 830.093 663.802 830.179 668.741 830.274 673.617L845.005 673.617C844.927 668.519 844.833 663.393 844.775 658.194 844.765 657.269 844.737 656.396 844.729 655.467 844.464 627.504 844.479 600.67 844.406 576.188 844.334 551.707 844.189 529.576 843.762 510.922 843.335 492.268 842.66 477.164 841.828 466.722 840.997 456.28 839.991 450.452 838.975 450.452Z" fill="#00892C" fill-rule="evenodd" transform="matrix(1 8.73097e-05 -8.72665e-05 1.0005 495.864 1569.95)"/><path d="M852.494 473.681C851.591 474.252 851.662 480.511 852.28 491.319 852.898 502.127 854.069 517.509 855.286 536.511 856.503 555.514 857.734 578.18 858.723 603.467 859.594 625.745 860.25 650.13 860.742 675.686L874.487 675.686C873.921 649.183 872.858 623.785 871.308 600.659 869.575 574.798 867.272 551.714 864.779 532.651 862.286 513.588 859.613 498.537 857.391 488.424 855.17 478.311 853.398 473.11 852.494 473.682Z" fill="#00892C" fill-rule="evenodd" transform="matrix(1 8.73097e-05 -8.72665e-05 1.0005 495.864 1569.95)"/><path d="M469.641 673.684C469.677 668.16 469.69 662.634 469.641 657.011 469.604 653.064 469.511 649.066 469.427 645.077 468.909 620.578 467.484 597.037 465.045 575.489 462.607 553.942 459.177 534.374 454.994 517.31 451.176 501.47 446.746 487.79 442.28 476.505 437.814 465.219 433.295 456.35 429.309 449.39 420.296 437.107 415.134 428.683 415.606 426.311 416.107 423.968 422.274 427.986 432.96 437.367 437.865 443.224 443.47 451.624 449.111 462.991 454.751 474.357 460.394 488.767 465.304 505.989 470.472 524.343 474.791 545.624 477.847 568.995 480.903 592.366 482.714 617.785 483.216 643.936 483.298 648.194 483.329 652.463 483.345 656.66 483.372 662.412 483.33 668.048 483.259 673.683L469.643 673.683 469.643 673.683Z" fill="#00892C" fill-rule="evenodd" transform="matrix(1 8.73097e-05 -8.72665e-05 1.0005 495.864 1569.95)"/><path d="M514.437 673.684C514.728 668.212 515.053 662.731 515.296 657.187 516.742 624.319 517.2 592.413 516.785 562.304 516.305 527.055 514.605 494.222 512.319 464.963 510.032 435.705 507.181 410.078 504.53 388.799 501.879 367.52 499.477 350.577 498.001 338.725 496.526 326.873 495.969 320.087 496.913 319.186 497.858 318.286 500.205 323.355 503.442 333.928 506.679 344.501 510.831 360.611 515.068 381.663 519.304 402.715 523.586 428.767 527.094 458.998 530.602 489.228 533.297 523.621 534.367 560.785 535.276 592.465 535.075 626.095 533.566 660.582 533.373 664.989 533.167 669.326 532.936 673.685L514.438 673.685Z" fill="#00892C" fill-rule="evenodd" transform="matrix(1 8.73097e-05 -8.72665e-05 1.0005 495.864 1569.95)"/><path d="M553.491 673.684C557.161 650.55 560.955 628.517 564.444 607.87 568.204 585.624 571.601 564.872 574.366 545.83 575.979 534.704 577.39 524.196 578.533 514.415 579.676 504.633 580.541 495.585 581.196 487.299 581.837 479.112 582.254 471.673 582.527 465.186 582.8 458.698 582.917 453.18 583 448.601 583.083 444.022 583.163 440.387 583.301 437.895 583.438 435.403 583.653 434.032 584.031 433.858 584.409 433.685 584.94 434.733 585.534 437.017 586.129 439.302 586.802 442.86 587.424 447.548 588.047 452.235 588.594 458.067 588.971 465.01 589.347 471.953 589.513 479.945 589.4 488.791 589.293 497.731 588.933 507.574 588.24 518.101 587.548 528.627 586.546 539.897 585.277 551.622 583.113 571.663 580.216 593.335 576.815 616.119 574.057 634.596 570.938 653.916 567.837 673.684L553.491 673.684Z" fill="#00892C" fill-rule="evenodd" transform="matrix(1 8.73097e-05 -8.72665e-05 1.0005 495.864 1569.95)"/><path d="M755.374 673.684C755.294 669.543 755.188 665.451 755.116 661.258 755.108 660.844 755.123 660.409 755.116 659.995 754.535 624.604 754.259 590.839 753.931 559.959 753.603 529.078 753.187 501.089 752.591 477.612 751.994 454.137 751.223 435.157 750.271 422.013 749.319 408.869 748.214 401.585 747.075 401.585 745.937 401.585 744.849 408.825 743.828 421.908 742.807 434.991 741.838 453.887 740.942 477.297 740.045 500.706 739.231 528.663 738.725 559.748 738.22 590.833 738.037 625.096 738.622 661.153 738.629 661.576 738.615 661.995 738.622 662.417 738.684 666.215 738.8 669.923 738.88 673.685L755.374 673.685Z" fill="#00892C" fill-rule="evenodd" transform="matrix(1 8.73097e-05 -8.72665e-05 1.0005 495.864 1569.95)"/><path d="M712.208 673.684C711.861 655.968 711.121 638.973 709.981 623.406 708.599 604.546 706.656 587.761 704.5 574.066 702.343 560.37 700.007 549.747 698.064 542.714 696.121 535.681 694.609 532.22 693.892 532.817 693.175 533.414 693.317 538.021 693.962 545.748 694.607 553.475 695.708 564.343 696.791 577.894 697.874 591.445 698.915 607.665 699.655 625.862 700.256 640.636 700.636 656.778 700.893 673.684L712.208 673.684Z" fill="#00892C" fill-rule="evenodd" transform="matrix(1 8.73097e-05 -8.72665e-05 1.0005 495.864 1569.95)"/><path d="M800.866 387.152C800.44 387.138 799.75 388.23 798.847 390.486 797.815 393.065 796.504 397.167 795.067 402.684 793.631 408.202 792.079 415.148 790.6 423.569 789.121 431.991 787.728 441.907 786.648 453.054 785.659 463.278 784.953 474.535 784.586 486.663 784.22 498.79 784.213 511.792 784.629 525.361 785.25 545.396 786.681 566.695 788.925 588.719 791.168 610.742 794.215 633.47 797.687 656.463 798.395 661.151 799.112 665.734 799.835 670.327 800.118 672.136 800.409 673.886 800.694 675.68L815.04 675.68C814.318 671.072 813.611 666.574 812.893 661.903 812.198 657.359 811.522 652.816 810.831 648.214 807.44 625.643 804.379 603.684 801.939 582.751 799.5 561.818 797.695 541.909 796.613 523.167 795.878 510.514 795.442 498.392 795.324 487.101 795.207 475.81 795.406 465.325 795.797 455.686 796.641 434.711 798.473 417.917 799.792 406.281 800.451 400.463 800.958 395.894 801.209 392.68 801.46 389.465 801.437 387.631 801.037 387.239 800.987 387.19 800.926 387.153 800.865 387.151L800.866 387.151Z" fill="#00892C" fill-rule="evenodd" transform="matrix(1 8.73097e-05 -8.72665e-05 1.0005 495.864 1569.95)"/><path d="M637.538 389.156C637.694 389.093 637.903 389.213 638.053 389.682 638.203 390.15 638.274 391.052 638.31 391.68 638.387 392.789 638.394 394.228 638.31 395.886 638.144 399.162 637.663 403.566 636.972 408.819 635.596 419.261 633.276 433.609 630.487 451.088 624.98 485.579 617.503 532.956 611.7 588.83 608.882 615.992 606.527 645.203 604.906 675.683L588.282 675.683C590.045 642.382 593.015 610.656 596.62 581.575 600.185 552.781 604.375 526.546 608.664 503.344 612.952 480.142 617.324 459.996 621.325 443.41 625.395 426.536 629.028 413.459 631.825 404.295 633.244 399.633 634.408 396.09 635.325 393.569 635.794 392.268 636.188 391.338 636.509 390.625 636.717 389.969 636.964 389.877 637.126 389.678 637.289 389.48 637.383 389.216 637.538 389.153Z" fill="#00892C" fill-rule="evenodd" transform="matrix(1 8.73097e-05 -8.72665e-05 1.0005 495.864 1569.95)"/><path d="M667.745 444.803C668.618 445.404 668.315 452.654 667.186 465.249 666.058 477.845 664.12 495.847 661.86 518.076 659.6 540.305 657.026 566.704 655.073 596.175 653.441 620.803 652.248 647.59 652.067 675.678L638.45 675.678C638.825 645.854 640.485 617.68 642.789 592.138 645.527 561.769 649.113 535.018 652.625 512.986 656.137 490.952 659.566 473.693 662.247 462.002 664.928 450.311 666.871 444.202 667.745 444.802Z" fill="#00892C" fill-rule="evenodd" transform="matrix(1 8.73097e-05 -8.72665e-05 1.0005 495.864 1569.95)"/><path d="M838.975 450.452C837.958 450.452 837.005 456.285 836.075 466.628 835.144 476.97 834.218 491.862 833.312 510.359 832.407 528.854 831.546 550.911 830.873 575.531 830.2 600.151 829.734 627.349 829.998 656.032 830.006 656.984 830.034 657.903 830.044 658.853 830.093 663.802 830.179 668.741 830.274 673.617L845.005 673.617C844.927 668.519 844.833 663.393 844.775 658.194 844.765 657.269 844.737 656.396 844.729 655.467 844.464 627.504 844.479 600.67 844.406 576.188 844.334 551.707 844.189 529.576 843.762 510.922 843.335 492.268 842.66 477.164 841.828 466.722 840.997 456.28 839.991 450.452 838.975 450.452Z" fill="#00892C" fill-rule="evenodd" transform="matrix(1 8.73097e-05 -8.72665e-05 1.0005 495.864 1569.95)"/><path d="M852.494 473.681C851.591 474.252 851.662 480.511 852.28 491.319 852.898 502.127 854.069 517.509 855.286 536.511 856.503 555.514 857.734 578.18 858.723 603.467 859.594 625.745 860.25 650.13 860.742 675.686L874.487 675.686C873.921 649.183 872.858 623.785 871.308 600.659 869.575 574.798 867.272 551.714 864.779 532.651 862.286 513.588 859.613 498.537 857.391 488.424 855.17 478.311 853.398 473.11 852.494 473.682Z" fill="#00892C" fill-rule="evenodd" transform="matrix(1 8.73097e-05 -8.72665e-05 1.0005 495.864 1569.95)"/><path d="M480.721 645.544C480.758 639.872 480.771 634.195 480.721 628.422 480.682 624.369 480.587 620.263 480.5 616.166 479.969 591.007 478.505 566.83 476.001 544.702 473.497 522.574 469.974 502.478 465.679 484.954 461.758 468.688 457.208 454.64 452.622 443.049 448.036 431.46 443.395 422.351 439.301 415.203 430.045 402.589 424.744 393.939 425.229 391.502 425.743 389.096 432.077 393.223 443.05 402.857 448.088 408.871 453.844 417.499 459.636 429.171 465.429 440.844 471.224 455.643 476.266 473.329 481.574 492.177 486.009 514.032 489.146 538.033 492.284 562.034 494.145 588.137 494.66 614.994 494.744 619.367 494.776 623.751 494.793 628.061 494.82 633.968 494.777 639.756 494.704 645.543L480.721 645.543 480.722 645.543Z" fill="#00892C" fill-rule="evenodd" transform="matrix(1 8.73097e-05 -8.72665e-05 1.0005 495.864 1569.95)"/><path d="M522.339 645.544C522.701 639.145 523.103 632.735 523.406 626.252 525.2 587.813 525.769 550.498 525.254 515.29 524.657 474.066 522.547 435.668 519.709 401.452 516.871 367.234 513.331 337.264 510.041 312.378 506.75 287.492 503.768 267.677 501.936 253.816 500.105 239.954 499.413 232.019 500.586 230.966 501.758 229.913 504.672 235.842 508.69 248.207 512.708 260.571 517.862 279.412 523.122 304.032 528.381 328.652 533.695 359.12 538.05 394.475 542.405 429.83 545.75 470.051 547.079 513.515 548.207 550.565 547.957 589.896 546.084 630.23 545.844 635.384 545.588 640.456 545.302 645.554L522.339 645.554Z" fill="#00892C" fill-rule="evenodd" transform="matrix(1 8.73097e-05 -8.72665e-05 1.0005 495.864 1569.95)"/><path d="M566.834 645.544C570.604 621.786 574.499 599.158 578.083 577.956 581.945 555.11 585.433 533.799 588.273 514.243 589.929 502.817 591.378 492.027 592.552 481.982 593.726 471.936 594.614 462.645 595.287 454.135 595.945 445.727 596.374 438.088 596.654 431.426 596.934 424.763 597.054 419.096 597.139 414.393 597.225 409.691 597.307 405.958 597.448 403.399 597.589 400.839 597.81 399.431 598.198 399.253 598.586 399.075 599.131 400.151 599.742 402.497 600.353 404.843 601.043 408.497 601.683 413.311 602.322 418.126 602.884 424.114 603.271 431.245 603.657 438.375 603.828 446.582 603.712 455.667 603.602 464.848 603.232 474.956 602.521 485.765 601.81 496.575 600.781 508.151 599.477 520.19 597.255 540.771 594.28 563.028 590.787 586.427 587.955 605.401 584.752 625.243 581.568 645.544L566.834 645.544Z" fill="#00892C" fill-rule="evenodd" transform="matrix(1 8.73097e-05 -8.72665e-05 1.0005 495.864 1569.95)"/><path d="M740.411 645.544C740.329 641.292 740.22 637.089 740.146 632.783 740.138 632.358 740.153 631.911 740.146 631.486 739.549 595.141 739.266 560.466 738.929 528.752 738.592 497.039 738.165 468.295 737.553 444.187 736.94 420.078 736.148 400.587 735.171 387.089 734.193 373.591 733.057 366.109 731.889 366.109 730.72 366.109 729.603 373.545 728.554 386.981 727.505 400.417 726.51 419.822 725.59 443.863 724.669 467.904 723.832 496.613 723.314 528.537 722.795 560.46 722.606 595.646 723.208 632.677 723.215 633.111 723.201 633.541 723.208 633.975 723.271 637.875 723.39 641.683 723.472 645.545L740.411 645.545Z" fill="#00892C" fill-rule="evenodd" transform="matrix(1 8.73097e-05 -8.72665e-05 1.0005 495.864 1569.95)"/><path d="M696.082 645.544C695.725 627.351 694.966 609.896 693.794 593.91 692.376 574.542 690.381 557.305 688.166 543.24 685.951 529.175 683.552 518.266 681.557 511.043 679.561 503.82 678.008 500.265 677.272 500.879 676.535 501.492 676.682 506.224 677.344 514.159 678.007 522.094 679.137 533.256 680.249 547.172 681.362 561.089 682.431 577.746 683.191 596.432 683.808 611.605 684.198 628.182 684.462 645.544L696.082 645.544Z" fill="#00892C" fill-rule="evenodd" transform="matrix(1 8.73097e-05 -8.72665e-05 1.0005 495.864 1569.95)"/><path d="M820.865 351.296C820.428 351.283 819.719 352.404 818.792 354.721 817.732 357.369 816.385 361.581 814.91 367.247 813.435 372.913 811.841 380.046 810.323 388.695 808.804 397.343 807.374 407.527 806.264 418.974 805.249 429.473 804.523 441.035 804.147 453.489 803.77 465.943 803.763 479.295 804.191 493.231 804.829 513.806 806.298 535.678 808.602 558.297 810.906 580.914 814.035 604.254 817.601 627.867 818.328 632.682 819.065 637.389 819.806 642.106 820.097 643.963 820.396 645.76 820.689 647.603L835.422 647.603C834.68 642.87 833.954 638.251 833.217 633.455 832.503 628.788 831.81 624.123 831.099 619.396 827.617 596.216 824.474 573.665 821.968 552.169 819.463 530.672 817.61 510.226 816.499 490.979 815.744 477.983 815.296 465.536 815.175 453.941 815.055 442.345 815.259 431.578 815.66 421.678 816.528 400.139 818.408 382.891 819.763 370.942 820.44 364.968 820.961 360.276 821.218 356.974 821.476 353.673 821.453 351.79 821.042 351.387 820.99 351.337 820.928 351.299 820.866 351.297L820.866 351.297Z" fill="#00892C" fill-rule="evenodd" transform="matrix(1 8.73097e-05 -8.72665e-05 1.0005 495.864 1569.95)"/><path d="M749.507 353.342C749.347 353.277 749.133 353.401 748.979 353.882 748.824 354.363 748.752 355.29 748.714 355.934 748.635 357.073 748.628 358.551 748.714 360.253 748.885 363.618 749.379 368.14 750.089 373.535 751.501 384.259 753.884 398.995 756.749 416.945 762.404 452.367 770.083 501.019 776.042 558.404 778.936 586.3 781.355 616.297 783.019 647.599L800.092 647.599C798.281 613.401 795.231 580.819 791.529 550.954 787.867 521.384 783.565 494.442 779.161 470.614 774.757 446.787 770.268 426.096 766.158 409.064 761.979 391.735 758.248 378.307 755.376 368.894 753.919 364.106 752.723 360.468 751.781 357.88 751.3 356.543 750.896 355.588 750.566 354.856 750.352 354.183 750.098 354.088 749.931 353.884 749.765 353.68 749.668 353.41 749.509 353.344Z" fill="#00892C" fill-rule="evenodd" transform="matrix(1 8.73097e-05 -8.72665e-05 1.0005 495.864 1569.95)"/><path d="M650.424 410.505C651.322 411.122 651.01 418.568 649.851 431.502 648.692 444.438 646.702 462.925 644.381 485.754 642.06 508.582 639.417 535.692 637.411 565.958 635.735 591.25 634.51 618.759 634.324 647.604L620.341 647.604C620.726 616.977 622.431 588.043 624.796 561.813 627.608 530.625 631.291 503.153 634.898 480.527 638.504 457.899 642.025 440.175 644.779 428.168 647.532 416.162 649.528 409.888 650.425 410.505Z" fill="#00892C" fill-rule="evenodd" transform="matrix(1 8.73097e-05 -8.72665e-05 1.0005 495.864 1569.95)"/><path d="M860.012 416.299C858.969 416.299 857.989 422.29 857.034 432.911 856.079 443.531 855.128 458.825 854.198 477.82 853.267 496.815 852.383 519.465 851.692 544.749 851.001 570.033 850.522 597.964 850.794 627.42 850.802 628.398 850.83 629.342 850.841 630.317 850.891 635.4 850.979 640.472 851.077 645.48L866.206 645.48C866.126 640.244 866.029 634.981 865.969 629.64 865.959 628.69 865.931 627.794 865.922 626.84 865.65 598.123 865.665 570.565 865.591 545.424 865.517 520.283 865.367 497.555 864.929 478.398 864.491 459.242 863.798 443.731 862.944 433.006 862.089 422.283 861.056 416.299 860.013 416.299Z" fill="#00892C" fill-rule="evenodd" transform="matrix(1 8.73097e-05 -8.72665e-05 1.0005 495.864 1569.95)"/><path d="M873.896 440.151C872.968 440.738 873.04 447.165 873.675 458.265 874.31 469.364 875.513 485.161 876.763 504.676 878.013 524.19 879.277 547.467 880.292 573.435 881.186 596.314 881.86 621.357 882.365 647.602L896.481 647.602C895.9 620.384 894.808 594.302 893.216 570.552 891.437 543.994 889.072 520.288 886.511 500.711 883.951 481.134 881.206 465.677 878.924 455.292 876.643 444.907 874.823 439.565 873.895 440.152Z" fill="#00892C" fill-rule="evenodd" transform="matrix(1 8.73097e-05 -8.72665e-05 1.0005 495.864 1569.95)"/><path d="M508.332 654.256C508.363 649.367 508.375 644.474 508.332 639.496 508.299 636.003 508.216 632.463 508.142 628.932 507.683 607.246 506.422 586.406 504.263 567.332 502.105 548.258 499.068 530.936 495.366 515.83 491.986 501.809 488.064 489.699 484.111 479.709 480.157 469.718 476.157 461.867 472.627 455.705 464.649 444.832 460.079 437.376 460.498 435.276 460.941 433.202 466.4 436.759 475.86 445.063 480.202 450.248 485.164 457.685 490.156 467.746 495.149 477.807 500.144 490.564 504.491 505.809 509.066 522.056 512.889 540.894 515.594 561.583 518.298 582.271 519.902 604.773 520.346 627.921 520.419 631.691 520.446 635.47 520.46 639.185 520.484 644.277 520.447 649.265 520.384 654.255L508.331 654.255 508.331 654.255Z" fill="#00892C" fill-rule="evenodd" transform="matrix(1 8.73097e-05 -8.72665e-05 1.0005 495.864 1569.95)"/><path d="M549.358 654.256C549.616 649.412 549.903 644.561 550.119 639.653 551.398 610.559 551.804 582.314 551.437 555.661 551.011 524.459 549.506 495.394 547.483 469.494 545.459 443.593 542.935 420.909 540.588 402.073 538.242 383.236 536.115 368.238 534.809 357.746 533.503 347.254 533.01 341.247 533.846 340.451 534.682 339.654 536.759 344.141 539.625 353.5 542.49 362.859 546.165 377.12 549.916 395.755 553.666 414.39 557.456 437.452 560.561 464.213 563.667 490.973 566.052 521.417 567 554.316 567.804 582.358 567.626 612.129 566.29 642.657 566.119 646.559 565.937 650.398 565.732 654.257L549.358 654.257Z" fill="#00892C" fill-rule="evenodd" transform="matrix(1 8.73097e-05 -8.72665e-05 1.0005 495.864 1569.95)"/><path d="M582.556 654.256C585.805 633.777 589.163 614.272 592.251 595.996 595.58 576.303 598.587 557.933 601.035 541.077 602.463 531.228 603.711 521.927 604.723 513.268 605.735 504.609 606.501 496.6 607.081 489.265 607.648 482.017 608.018 475.432 608.259 469.689 608.501 463.946 608.604 459.061 608.678 455.007 608.751 450.954 608.822 447.737 608.944 445.53 609.065 443.325 609.256 442.111 609.59 441.957 609.924 441.804 610.395 442.732 610.921 444.754 611.447 446.776 612.043 449.925 612.594 454.075 613.145 458.225 613.63 463.388 613.963 469.534 614.296 475.679 614.443 482.754 614.343 490.585 614.248 498.499 613.929 507.211 613.316 516.53 612.703 525.848 611.816 535.825 610.693 546.204 608.777 563.944 606.213 583.129 603.202 603.299 600.761 619.655 598 636.757 595.255 654.256L582.556 654.256Z" fill="#00892C" fill-rule="evenodd" transform="matrix(1 8.73097e-05 -8.72665e-05 1.0005 495.864 1569.95)"/><path d="M733.205 654.256C733.134 650.591 733.04 646.968 732.977 643.256 732.97 642.89 732.982 642.505 732.977 642.138 732.462 610.81 732.218 580.92 731.927 553.583 731.636 526.248 731.269 501.471 730.741 480.69 730.213 459.909 729.53 443.107 728.687 431.472 727.844 419.837 726.866 413.389 725.858 413.389 724.851 413.389 723.888 419.798 722.984 431.379 722.08 442.96 721.222 459.687 720.429 480.409 719.635 501.133 718.914 525.879 718.467 553.397 718.02 580.914 717.857 611.243 718.375 643.162 718.381 643.536 718.37 643.907 718.375 644.281 718.43 647.643 718.533 650.925 718.604 654.255L733.204 654.255Z" fill="#00892C" fill-rule="evenodd" transform="matrix(1 8.73097e-05 -8.72665e-05 1.0005 495.864 1569.95)"/><path d="M694.992 654.256C694.684 638.574 694.029 623.529 693.02 609.749 691.797 593.054 690.077 578.195 688.168 566.072 686.259 553.949 684.191 544.545 682.471 538.319 680.751 532.093 679.412 529.03 678.778 529.558 678.143 530.087 678.269 534.165 678.84 541.005 679.411 547.845 680.386 557.466 681.344 569.462 682.303 581.458 683.225 595.815 683.88 611.924 684.412 625.001 684.748 639.292 684.975 654.257L694.992 654.257Z" fill="#00892C" fill-rule="evenodd" transform="matrix(1 8.73097e-05 -8.72665e-05 1.0005 495.864 1569.95)"/><path d="M801.53 400.62C801.153 400.609 800.543 401.575 799.743 403.572 798.83 405.854 797.669 409.485 796.397 414.369 795.126 419.253 793.752 425.402 792.443 432.856 791.134 440.311 789.901 449.089 788.945 458.956 788.069 468.006 787.444 477.972 787.119 488.707 786.795 499.443 786.789 510.951 787.157 522.963 787.707 540.698 788.974 559.552 790.96 579.048 792.946 598.543 795.642 618.663 798.716 639.017 799.343 643.167 799.978 647.224 800.618 651.29 800.868 652.891 801.126 654.44 801.378 656.029L814.078 656.029C813.438 651.95 812.812 647.968 812.176 643.833 811.561 639.811 810.963 635.789 810.351 631.715 807.349 611.734 804.64 592.296 802.481 573.766 800.321 555.237 798.724 537.612 797.766 521.021 797.115 509.82 796.729 499.09 796.625 489.095 796.521 479.1 796.698 469.818 797.043 461.286 797.791 442.718 799.412 427.853 800.58 417.552 801.164 412.402 801.612 408.357 801.834 405.512 802.056 402.666 802.036 401.043 801.682 400.696 801.638 400.653 801.584 400.62 801.53 400.618L801.53 400.618Z" fill="#00892C" fill-rule="evenodd" transform="matrix(1 8.73097e-05 -8.72665e-05 1.0005 495.864 1569.95)"/><path d="M740.016 402.385C739.879 402.329 739.694 402.436 739.561 402.851 739.428 403.265 739.365 404.064 739.333 404.619 739.265 405.601 739.259 406.875 739.333 408.342 739.48 411.243 739.906 415.141 740.518 419.791 741.735 429.035 743.789 441.737 746.258 457.209 751.133 487.741 757.751 529.679 762.888 579.146 765.383 603.191 767.467 629.049 768.902 656.031L783.618 656.031C782.057 626.552 779.428 598.468 776.237 572.724 773.081 547.235 769.372 524.011 765.576 503.473 761.78 482.935 757.91 465.1 754.368 450.418 750.766 435.481 747.549 423.905 745.073 415.793 743.818 411.666 742.787 408.529 741.975 406.298 741.56 405.147 741.212 404.323 740.927 403.692 740.743 403.112 740.524 403.03 740.38 402.855 740.237 402.679 740.154 402.445 740.016 402.389Z" fill="#00892C" fill-rule="evenodd" transform="matrix(1 8.73097e-05 -8.72665e-05 1.0005 495.864 1569.95)"/><path d="M655.637 451.657C656.411 452.188 656.142 458.606 655.143 469.756 654.144 480.905 652.429 496.841 650.428 516.518 648.427 536.196 646.149 559.565 644.42 585.653 642.976 607.454 641.919 631.167 641.759 656.031L629.705 656.031C630.037 629.631 631.507 604.69 633.545 582.08 635.969 555.197 639.144 531.518 642.253 512.013 645.361 492.509 648.397 477.23 650.77 466.88 653.143 456.531 654.864 451.124 655.637 451.655Z" fill="#00892C" fill-rule="evenodd" transform="matrix(1 8.73097e-05 -8.72665e-05 1.0005 495.864 1569.95)"/><path d="M835.268 456.651C834.368 456.651 833.524 461.815 832.7 470.969 831.877 480.124 831.057 493.307 830.255 509.681 829.454 526.054 828.691 545.578 828.096 567.372 827.5 589.166 827.088 613.243 827.321 638.633 827.328 639.476 827.353 640.289 827.362 641.13 827.405 645.511 827.481 649.883 827.566 654.2L840.606 654.2C840.537 649.687 840.454 645.15 840.402 640.547 840.394 639.728 840.369 638.955 840.362 638.133 840.127 613.38 840.14 589.626 840.076 567.955 840.012 546.283 839.883 526.692 839.506 510.18 839.128 493.667 838.531 480.297 837.794 471.053 837.058 461.809 836.168 456.651 835.268 456.651Z" fill="#00892C" fill-rule="evenodd" transform="matrix(1 8.73097e-05 -8.72665e-05 1.0005 495.864 1569.95)"/><path d="M847.23 477.211C846.43 477.717 846.492 483.257 847.04 492.824 847.587 502.392 848.624 516.008 849.701 532.829 850.779 549.65 851.868 569.715 852.743 592.098 853.514 611.819 854.095 633.405 854.53 656.029L866.698 656.029C866.198 632.567 865.256 610.085 863.884 589.612 862.35 566.719 860.312 546.286 858.105 529.411 855.898 512.536 853.531 499.213 851.565 490.261 849.598 481.309 848.03 476.704 847.23 477.21Z" fill="#00892C" fill-rule="evenodd" transform="matrix(1 8.73097e-05 -8.72665e-05 1.0005 495.864 1569.95)"/><path d="M663.944 654.256C664.202 649.412 664.489 644.561 664.705 639.653 665.984 610.559 666.39 582.314 666.023 555.661 665.597 524.459 664.092 495.394 662.069 469.494 660.045 443.593 657.52 420.909 655.174 402.073 652.828 383.236 650.701 368.238 649.395 357.746 648.089 347.254 647.596 341.247 648.432 340.451 649.268 339.654 651.345 344.141 654.211 353.5 657.076 362.859 660.752 377.12 664.502 395.755 668.253 414.39 672.043 437.452 675.148 464.213 678.253 490.973 680.638 521.417 681.586 554.316 682.39 582.358 682.212 612.129 680.876 642.657 680.705 646.559 680.523 650.398 680.319 654.257L663.944 654.257Z" fill="#00892C" fill-rule="evenodd" transform="matrix(1 8.73097e-05 -8.72665e-05 1.0005 495.864 1569.95)"/><path d="M712.686 400.62C712.309 400.609 711.698 401.575 710.899 403.572 709.985 405.854 708.824 409.485 707.553 414.369 706.281 419.253 704.907 425.402 703.598 432.856 702.289 440.311 701.057 449.089 700.1 458.956 699.225 468.006 698.6 477.972 698.275 488.707 697.951 499.443 697.944 510.951 698.313 522.963 698.863 540.698 700.13 559.552 702.115 579.048 704.102 598.543 706.798 618.663 709.872 639.017 710.499 643.167 711.134 647.224 711.773 651.29 712.024 652.891 712.282 654.44 712.534 656.029L725.233 656.029C724.593 651.95 723.968 647.968 723.332 643.833 722.717 639.811 722.119 635.789 721.507 631.715 718.505 611.734 715.796 592.296 713.636 573.766 711.476 555.237 709.879 537.612 708.921 521.021 708.271 509.82 707.884 499.09 707.781 489.095 707.677 479.1 707.853 469.818 708.199 461.286 708.946 442.718 710.567 427.853 711.735 417.552 712.319 412.402 712.768 408.357 712.99 405.512 713.212 402.666 713.192 401.043 712.838 400.696 712.793 400.653 712.739 400.62 712.686 400.618L712.686 400.618Z" fill="#00892C" fill-rule="evenodd" transform="matrix(1 8.73097e-05 -8.72665e-05 1.0005 495.864 1569.95)"/><path d="M834.572 416.424C834.71 416.368 834.894 416.475 835.027 416.889 835.16 417.304 835.223 418.103 835.255 418.658 835.323 419.64 835.33 420.914 835.255 422.381 835.109 425.281 834.683 429.18 834.071 433.83 832.853 443.074 830.799 455.775 828.33 471.248 823.455 501.78 816.837 543.718 811.7 593.186 809.206 617.231 807.121 643.088 805.686 670.069L790.97 670.069C792.531 640.592 795.16 612.506 798.351 586.764 801.508 561.274 805.216 538.051 809.012 517.513 812.808 496.974 816.678 479.14 820.22 464.457 823.823 449.521 827.039 437.945 829.515 429.831 830.771 425.705 831.801 422.568 832.613 420.337 833.028 419.185 833.377 418.362 833.661 417.731 833.846 417.15 834.064 417.069 834.208 416.893 834.351 416.718 834.435 416.484 834.572 416.428Z" fill="#00892C" fill-rule="evenodd" transform="matrix(1 8.73097e-05 -8.72665e-05 1.0005 495.864 1569.95)"/><path d="M897.052 451.657C897.825 452.188 897.556 458.606 896.557 469.756 895.559 480.905 893.843 496.841 891.842 516.518 889.841 536.196 887.563 559.565 885.835 585.653 884.39 607.454 883.333 631.167 883.173 656.031L871.119 656.031C871.451 629.631 872.921 604.69 874.96 582.08 877.384 555.197 880.559 531.518 883.667 512.013 886.776 492.509 889.811 477.23 892.184 466.88 894.558 456.531 896.278 451.124 897.051 451.655Z" fill="#00892C" fill-rule="evenodd" transform="matrix(1 8.73097e-05 -8.72665e-05 1.0005 495.864 1569.95)"/><path d="M775.29 448.23C774.391 448.23 773.547 453.394 772.723 462.549 771.9 471.704 771.08 484.887 770.278 501.26 769.476 517.633 768.714 537.157 768.118 558.952 767.523 580.746 767.11 604.823 767.344 630.212 767.351 631.056 767.376 631.869 767.385 632.71 767.428 637.091 767.504 641.463 767.589 645.78L780.629 645.78C780.56 641.267 780.477 636.73 780.425 632.127 780.417 631.308 780.392 630.535 780.384 629.713 780.15 604.96 780.163 581.206 780.099 559.535 780.035 537.864 779.906 518.273 779.529 501.76 779.151 485.247 778.553 471.877 777.817 462.634 777.081 453.39 776.19 448.231 775.291 448.231Z" fill="#00892C" fill-rule="evenodd" transform="matrix(1 8.73097e-05 -8.72665e-05 1.0005 495.864 1569.95)"/><path d="M685.543 465.976C684.743 466.482 684.805 472.022 685.353 481.589 685.9 491.157 686.937 504.773 688.014 521.594 689.092 538.415 690.181 558.479 691.056 580.863 691.827 600.584 692.408 622.17 692.843 644.793L705.011 644.793C704.51 621.332 703.569 598.85 702.197 578.377 700.663 555.484 698.625 535.05 696.418 518.176 694.211 501.301 691.844 487.977 689.878 479.025 687.911 470.074 686.343 465.469 685.543 465.975Z" fill="#00892C" fill-rule="evenodd" transform="matrix(1 8.73097e-05 -8.72665e-05 1.0005 495.864 1569.95)"/></g></svg>