<svg width="813" height="434" xmlns="http://www.w3.org/2000/svg" xmlns:xlink="http://www.w3.org/1999/xlink" xml:space="preserve" overflow="hidden"><defs><clipPath id="clip0"><rect x="687" y="1815" width="813" height="434"/></clipPath></defs><g clip-path="url(#clip0)" transform="translate(-687 -1815)"><path d="M57.2556 673.294C57.2912 667.774 57.3043 662.25 57.2556 656.631 57.2181 652.686 57.1253 648.69 57.041 644.703 56.5237 620.219 55.0994 596.691 52.6623 575.156 50.2252 553.621 46.7969 534.065 42.6169 517.01 38.8008 501.18 34.3735 487.508 29.9103 476.229 25.4468 464.95 20.9305 456.086 16.9463 449.13 7.93852 436.854 2.77948 428.435 3.25167 426.064 3.75182 423.723 9.91539 427.739 20.5951 437.114 25.4974 442.967 31.0996 451.363 36.7368 462.722 42.3736 474.082 48.0134 488.484 52.9211 505.696 58.0863 524.039 62.4026 545.308 65.4565 568.666 68.5103 592.023 70.3208 617.427 70.8226 643.563 70.9043 647.818 70.9352 652.085 70.9513 656.28 70.9781 662.028 70.9362 667.661 70.8655 673.293L57.257 673.293 57.257 673.293Z" fill="#00892C" fill-rule="evenodd" transform="matrix(1.00045 8.72665e-05 -8.7306e-05 1 626.75 1573.67)"/><path d="M102.025 673.294C102.315 667.825 102.64 662.348 102.883 656.807 104.328 623.958 104.786 592.07 104.371 561.978 103.891 526.75 102.192 493.936 99.9069 464.694 97.6219 435.453 94.7721 409.841 92.1229 388.574 89.4739 367.307 87.0726 350.374 85.5982 338.529 84.1236 326.683 83.5668 319.901 84.5107 319.002 85.4545 318.102 87.8002 323.168 91.0354 333.735 94.2707 344.302 98.42 360.402 102.654 381.442 106.889 402.482 111.168 428.519 114.674 458.732 118.18 488.945 120.873 523.318 121.943 560.46 122.851 592.122 122.65 625.733 121.142 660.199 120.949 664.604 120.743 668.939 120.512 673.295L102.025 673.295Z" fill="#00892C" fill-rule="evenodd" transform="matrix(1.00045 8.72665e-05 -8.7306e-05 1 626.75 1573.67)"/><path d="M141.056 673.294C144.724 650.173 148.515 628.153 152.002 607.518 155.76 585.285 159.155 564.545 161.919 545.514 163.531 534.394 164.941 523.893 166.083 514.117 167.225 504.34 168.09 495.299 168.745 487.017 169.385 478.834 169.803 471.4 170.075 464.916 170.348 458.432 170.464 452.917 170.548 448.341 170.631 443.765 170.711 440.132 170.848 437.641 170.985 435.151 171.2 433.78 171.578 433.607 171.955 433.434 172.486 434.481 173.08 436.764 173.675 439.047 174.347 442.603 174.969 447.288 175.592 451.974 176.139 457.802 176.515 464.741 176.891 471.679 177.057 479.667 176.944 488.508 176.837 497.443 176.477 507.28 175.785 517.801 175.093 528.321 174.091 539.585 172.823 551.303 170.66 571.332 167.765 592.991 164.366 615.762 161.609 634.229 158.492 653.538 155.394 673.294L141.056 673.294Z" fill="#00892C" fill-rule="evenodd" transform="matrix(1.00045 8.72665e-05 -8.7306e-05 1 626.75 1573.67)"/><path d="M201.071 673.294C201.151 669.156 201.257 665.066 201.328 660.875 201.337 660.462 201.322 660.027 201.328 659.612 201.91 624.243 202.185 590.497 202.513 559.634 202.841 528.772 203.257 500.799 203.853 477.336 204.449 453.874 205.219 434.905 206.171 421.769 207.122 408.632 208.227 401.352 209.365 401.352 210.502 401.352 211.59 408.589 212.61 421.664 213.631 434.739 214.599 453.625 215.495 477.02 216.391 500.416 217.205 528.357 217.71 559.424 218.215 590.491 218.398 624.734 217.813 660.771 217.806 661.193 217.82 661.612 217.813 662.034 217.751 665.829 217.636 669.536 217.556 673.295L201.071 673.295Z" fill="#00892C" fill-rule="evenodd" transform="matrix(1.00045 8.72665e-05 -8.7306e-05 1 626.75 1573.67)"/><path d="M244.212 673.294C244.559 655.589 245.298 638.603 246.438 623.045 247.819 604.196 249.76 587.421 251.916 573.733 254.071 560.046 256.406 549.428 258.348 542.399 260.29 535.37 261.801 531.912 262.518 532.508 263.234 533.105 263.092 537.71 262.447 545.432 261.803 553.154 260.702 564.017 259.62 577.56 258.538 591.103 257.497 607.313 256.757 625.499 256.157 640.265 255.777 656.398 255.521 673.294L244.212 673.294Z" fill="#00892C" fill-rule="evenodd" transform="matrix(1.00045 8.72665e-05 -8.7306e-05 1 626.75 1573.67)"/><path d="M388.277 386.928C387.851 386.914 387.162 388.005 386.259 390.26 385.228 392.837 383.917 396.937 382.482 402.451 381.046 407.965 379.495 414.908 378.017 423.324 376.539 431.74 375.147 441.651 374.068 452.792 373.079 463.01 372.373 474.261 372.007 486.381 371.64 498.501 371.633 511.495 372.05 525.057 372.67 545.08 374.1 566.367 376.343 588.378 378.585 610.388 381.63 633.103 385.1 656.083 385.808 660.768 386.524 665.349 387.247 669.939 387.529 671.746 387.821 673.496 388.105 675.289L402.443 675.289C401.721 670.683 401.014 666.188 400.297 661.52 399.602 656.979 398.927 652.438 398.236 647.839 394.847 625.28 391.788 603.334 389.35 582.414 386.912 561.493 385.108 541.595 384.027 522.864 383.292 510.218 382.856 498.104 382.739 486.819 382.622 475.534 382.821 465.056 383.211 455.422 384.055 434.46 385.885 417.676 387.203 406.046 387.863 400.232 388.369 395.665 388.62 392.452 388.871 389.239 388.848 387.407 388.448 387.015 388.398 386.966 388.337 386.929 388.277 386.927L388.277 386.927Z" fill="#00892C" fill-rule="evenodd" transform="matrix(1.00045 8.72665e-05 -8.7306e-05 1 626.75 1573.67)"/><path d="M318.828 388.931C318.673 388.867 318.464 388.988 318.314 389.456 318.164 389.924 318.093 390.826 318.057 391.453 317.98 392.561 317.973 394 318.057 395.657 318.222 398.931 318.703 403.332 319.394 408.582 320.769 419.018 323.088 433.358 325.876 450.827 331.379 485.298 338.852 532.647 344.651 588.489 347.467 615.636 349.821 644.83 351.441 675.292L368.056 675.292C366.294 642.01 363.325 610.303 359.723 581.238 356.159 552.461 351.972 526.241 347.686 503.053 343.4 479.864 339.031 459.729 335.032 443.153 330.965 426.289 327.333 413.22 324.538 404.06 323.12 399.401 321.957 395.86 321.04 393.341 320.572 392.041 320.178 391.111 319.857 390.399 319.648 389.743 319.402 389.651 319.24 389.453 319.078 389.255 318.983 388.991 318.828 388.927Z" fill="#00892C" fill-rule="evenodd" transform="matrix(1.00045 8.72665e-05 -8.7306e-05 1 626.75 1573.67)"/><path d="M288.639 444.546C287.766 445.146 288.07 452.392 289.197 464.98 290.325 477.568 292.261 495.56 294.521 517.776 296.78 539.992 299.352 566.375 301.303 595.83 302.934 620.444 304.127 647.215 304.308 675.287L317.917 675.287C317.542 645.481 315.883 617.322 313.581 591.795 310.844 561.444 307.26 534.708 303.75 512.689 300.241 490.668 296.814 473.419 294.134 461.734 291.455 450.05 289.512 443.945 288.639 444.545Z" fill="#00892C" fill-rule="evenodd" transform="matrix(1.00045 8.72665e-05 -8.7306e-05 1 626.75 1573.67)"/><path d="M426.374 450.191C425.358 450.191 424.405 456.021 423.476 466.358 422.546 476.694 421.62 491.577 420.715 510.063 419.81 528.548 418.95 550.592 418.277 575.198 417.604 599.804 417.139 626.986 417.403 655.652 417.411 656.604 417.438 657.522 417.449 658.471 417.497 663.418 417.583 668.354 417.679 673.228L432.401 673.228C432.323 668.132 432.229 663.009 432.171 657.813 432.161 656.888 432.133 656.016 432.125 655.088 431.86 627.141 431.875 600.323 431.803 575.855 431.73 551.388 431.585 529.27 431.159 510.626 430.732 491.983 430.058 476.887 429.226 466.451 428.395 456.015 427.39 450.191 426.374 450.191Z" fill="#00892C" fill-rule="evenodd" transform="matrix(1.00045 8.72665e-05 -8.7306e-05 1 626.75 1573.67)"/><path d="M439.886 473.406C438.983 473.978 439.054 480.232 439.671 491.034 440.289 501.837 441.46 517.209 442.676 536.201 443.893 555.192 445.123 577.845 446.111 603.117 446.981 625.383 447.637 649.753 448.128 675.295L461.866 675.295C461.3 648.807 460.238 623.423 458.689 600.311 456.957 574.465 454.655 551.395 452.164 532.342 449.672 513.291 447 498.248 444.78 488.141 442.56 478.034 440.789 472.836 439.886 473.408Z" fill="#00892C" fill-rule="evenodd" transform="matrix(1.00045 8.72665e-05 -8.7306e-05 1 626.75 1573.67)"/><path d="M41.8653 638.778 919.427 638.778 919.427 675.292 41.8653 675.292Z" fill="#00892C" transform="matrix(1.00045 8.72665e-05 -8.7306e-05 1 626.75 1573.67)"/><path d="M57.2556 673.294C57.2912 667.774 57.3043 662.25 57.2556 656.631 57.2181 652.686 57.1253 648.69 57.041 644.703 56.5237 620.219 55.0994 596.691 52.6623 575.156 50.2252 553.621 46.7969 534.065 42.6169 517.01 38.8008 501.18 34.3735 487.508 29.9103 476.229 25.4468 464.95 20.9305 456.086 16.9463 449.13 7.93852 436.854 2.77948 428.435 3.25167 426.064 3.75182 423.723 9.91539 427.739 20.5951 437.114 25.4974 442.967 31.0996 451.363 36.7368 462.722 42.3736 474.082 48.0134 488.484 52.9211 505.696 58.0863 524.039 62.4026 545.308 65.4565 568.666 68.5103 592.023 70.3208 617.427 70.8226 643.563 70.9043 647.818 70.9352 652.085 70.9513 656.28 70.9781 662.028 70.9362 667.661 70.8655 673.293L57.257 673.293 57.257 673.293Z" fill="#00892C" fill-rule="evenodd" transform="matrix(1.00045 8.72665e-05 -8.7306e-05 1 626.75 1573.67)"/><path d="M102.025 673.294C102.315 667.825 102.64 662.348 102.883 656.807 104.328 623.958 104.786 592.07 104.371 561.978 103.891 526.75 102.192 493.936 99.9069 464.694 97.6219 435.453 94.7721 409.841 92.1229 388.574 89.4739 367.307 87.0726 350.374 85.5982 338.529 84.1236 326.683 83.5668 319.901 84.5107 319.002 85.4545 318.102 87.8002 323.168 91.0354 333.735 94.2707 344.302 98.42 360.402 102.654 381.442 106.889 402.482 111.168 428.519 114.674 458.732 118.18 488.945 120.873 523.318 121.943 560.46 122.851 592.122 122.65 625.733 121.142 660.199 120.949 664.604 120.743 668.939 120.512 673.295L102.025 673.295Z" fill="#00892C" fill-rule="evenodd" transform="matrix(1.00045 8.72665e-05 -8.7306e-05 1 626.75 1573.67)"/><path d="M141.056 673.294C144.724 650.173 148.515 628.153 152.002 607.518 155.76 585.285 159.155 564.545 161.919 545.514 163.531 534.394 164.941 523.893 166.083 514.117 167.225 504.34 168.09 495.299 168.745 487.017 169.385 478.834 169.803 471.4 170.075 464.916 170.348 458.432 170.464 452.917 170.548 448.341 170.631 443.765 170.711 440.132 170.848 437.641 170.985 435.151 171.2 433.78 171.578 433.607 171.955 433.434 172.486 434.481 173.08 436.764 173.675 439.047 174.347 442.603 174.969 447.288 175.592 451.974 176.139 457.802 176.515 464.741 176.891 471.679 177.057 479.667 176.944 488.508 176.837 497.443 176.477 507.28 175.785 517.801 175.093 528.321 174.091 539.585 172.823 551.303 170.66 571.332 167.765 592.991 164.366 615.762 161.609 634.229 158.492 653.538 155.394 673.294L141.056 673.294Z" fill="#00892C" fill-rule="evenodd" transform="matrix(1.00045 8.72665e-05 -8.7306e-05 1 626.75 1573.67)"/><path d="M201.071 673.294C201.151 669.156 201.257 665.066 201.328 660.875 201.337 660.462 201.322 660.027 201.328 659.612 201.91 624.243 202.185 590.497 202.513 559.634 202.841 528.772 203.257 500.799 203.853 477.336 204.449 453.874 205.219 434.905 206.171 421.769 207.122 408.632 208.227 401.352 209.365 401.352 210.502 401.352 211.59 408.589 212.61 421.664 213.631 434.739 214.599 453.625 215.495 477.02 216.391 500.416 217.205 528.357 217.71 559.424 218.215 590.491 218.398 624.734 217.813 660.771 217.806 661.193 217.82 661.612 217.813 662.034 217.751 665.829 217.636 669.536 217.556 673.295L201.071 673.295Z" fill="#00892C" fill-rule="evenodd" transform="matrix(1.00045 8.72665e-05 -8.7306e-05 1 626.75 1573.67)"/><path d="M244.212 673.294C244.559 655.589 245.298 638.603 246.438 623.045 247.819 604.196 249.76 587.421 251.916 573.733 254.071 560.046 256.406 549.428 258.348 542.399 260.29 535.37 261.801 531.912 262.518 532.508 263.234 533.105 263.092 537.71 262.447 545.432 261.803 553.154 260.702 564.017 259.62 577.56 258.538 591.103 257.497 607.313 256.757 625.499 256.157 640.265 255.777 656.398 255.521 673.294L244.212 673.294Z" fill="#00892C" fill-rule="evenodd" transform="matrix(1.00045 8.72665e-05 -8.7306e-05 1 626.75 1573.67)"/><path d="M388.277 386.928C387.851 386.914 387.162 388.005 386.259 390.26 385.228 392.837 383.917 396.937 382.482 402.451 381.046 407.965 379.495 414.908 378.017 423.324 376.539 431.74 375.147 441.651 374.068 452.792 373.079 463.01 372.373 474.261 372.007 486.381 371.64 498.501 371.633 511.495 372.05 525.057 372.67 545.08 374.1 566.367 376.343 588.378 378.585 610.388 381.63 633.103 385.1 656.083 385.808 660.768 386.524 665.349 387.247 669.939 387.529 671.746 387.821 673.496 388.105 675.289L402.443 675.289C401.721 670.683 401.014 666.188 400.297 661.52 399.602 656.979 398.927 652.438 398.236 647.839 394.847 625.28 391.788 603.334 389.35 582.414 386.912 561.493 385.108 541.595 384.027 522.864 383.292 510.218 382.856 498.104 382.739 486.819 382.622 475.534 382.821 465.056 383.211 455.422 384.055 434.46 385.885 417.676 387.203 406.046 387.863 400.232 388.369 395.665 388.62 392.452 388.871 389.239 388.848 387.407 388.448 387.015 388.398 386.966 388.337 386.929 388.277 386.927L388.277 386.927Z" fill="#00892C" fill-rule="evenodd" transform="matrix(1.00045 8.72665e-05 -8.7306e-05 1 626.75 1573.67)"/><path d="M318.828 388.931C318.673 388.867 318.464 388.988 318.314 389.456 318.164 389.924 318.093 390.826 318.057 391.453 317.98 392.561 317.973 394 318.057 395.657 318.222 398.931 318.703 403.332 319.394 408.582 320.769 419.018 323.088 433.358 325.876 450.827 331.379 485.298 338.852 532.647 344.651 588.489 347.467 615.636 349.821 644.83 351.441 675.292L368.056 675.292C366.294 642.01 363.325 610.303 359.723 581.238 356.159 552.461 351.972 526.241 347.686 503.053 343.4 479.864 339.031 459.729 335.032 443.153 330.965 426.289 327.333 413.22 324.538 404.06 323.12 399.401 321.957 395.86 321.04 393.341 320.572 392.041 320.178 391.111 319.857 390.399 319.648 389.743 319.402 389.651 319.24 389.453 319.078 389.255 318.983 388.991 318.828 388.927Z" fill="#00892C" fill-rule="evenodd" transform="matrix(1.00045 8.72665e-05 -8.7306e-05 1 626.75 1573.67)"/><path d="M288.639 444.546C287.766 445.146 288.07 452.392 289.197 464.98 290.325 477.568 292.261 495.56 294.521 517.776 296.78 539.992 299.352 566.375 301.303 595.83 302.934 620.444 304.127 647.215 304.308 675.287L317.917 675.287C317.542 645.481 315.883 617.322 313.581 591.795 310.844 561.444 307.26 534.708 303.75 512.689 300.241 490.668 296.814 473.419 294.134 461.734 291.455 450.05 289.512 443.945 288.639 444.545Z" fill="#00892C" fill-rule="evenodd" transform="matrix(1.00045 8.72665e-05 -8.7306e-05 1 626.75 1573.67)"/><path d="M426.374 450.191C425.358 450.191 424.405 456.021 423.476 466.358 422.546 476.694 421.62 491.577 420.715 510.063 419.81 528.548 418.95 550.592 418.277 575.198 417.604 599.804 417.139 626.986 417.403 655.652 417.411 656.604 417.438 657.522 417.449 658.471 417.497 663.418 417.583 668.354 417.679 673.228L432.401 673.228C432.323 668.132 432.229 663.009 432.171 657.813 432.161 656.888 432.133 656.016 432.125 655.088 431.86 627.141 431.875 600.323 431.803 575.855 431.73 551.388 431.585 529.27 431.159 510.626 430.732 491.983 430.058 476.887 429.226 466.451 428.395 456.015 427.39 450.191 426.374 450.191Z" fill="#00892C" fill-rule="evenodd" transform="matrix(1.00045 8.72665e-05 -8.7306e-05 1 626.75 1573.67)"/><path d="M439.886 473.406C438.983 473.978 439.054 480.232 439.671 491.034 440.289 501.837 441.46 517.209 442.676 536.201 443.893 555.192 445.123 577.845 446.111 603.117 446.981 625.383 447.637 649.753 448.128 675.295L461.866 675.295C461.3 648.807 460.238 623.423 458.689 600.311 456.957 574.465 454.655 551.395 452.164 532.342 449.672 513.291 447 498.248 444.78 488.141 442.56 478.034 440.789 472.836 439.886 473.408Z" fill="#00892C" fill-rule="evenodd" transform="matrix(1.00045 8.72665e-05 -8.7306e-05 1 626.75 1573.67)"/><path d="M68.3278 645.17C68.3643 639.501 68.3778 633.828 68.3278 628.058 68.2893 624.008 68.1939 619.904 68.1073 615.809 67.5761 590.665 66.1133 566.502 63.6105 544.387 61.1077 522.272 57.587 502.187 53.2943 484.674 49.3753 468.417 44.8287 454.377 40.2452 442.793 35.6613 431.21 31.0234 422.107 26.9314 414.963 17.6808 402.356 12.3827 393.711 12.8684 391.275 13.3821 388.871 19.7118 392.995 30.6789 402.623 35.7134 408.634 41.4667 417.257 47.2554 428.923 53.0441 440.589 58.8361 455.379 63.8756 473.055 69.18 491.893 73.6126 513.735 76.7482 537.721 79.8843 561.708 81.7436 587.796 82.259 614.638 82.3429 619.008 82.3746 623.39 82.3911 627.697 82.4186 633.601 82.3756 639.386 82.3029 645.169L68.3281 645.169 68.3282 645.169Z" fill="#00892C" fill-rule="evenodd" transform="matrix(1.00045 8.72665e-05 -8.7306e-05 1 626.75 1573.67)"/><path d="M114.302 645.17C114.6 639.554 114.933 633.929 115.183 628.239 116.667 594.505 117.137 561.757 116.712 530.854 116.218 494.676 114.473 460.978 112.127 430.948 109.78 400.917 106.854 374.616 104.133 352.775 101.413 330.935 98.9466 313.546 97.4323 301.381 95.918 289.216 95.3463 282.252 96.3155 281.327 97.2848 280.403 99.6938 285.606 103.016 296.457 106.339 307.308 110.6 323.843 114.949 345.45 119.297 367.056 123.691 393.795 127.292 424.823 130.893 455.85 133.658 491.148 134.757 529.296 135.69 561.811 135.483 596.329 133.934 631.725 133.736 636.248 133.524 640.699 133.287 645.173L114.302 645.173Z" fill="#00892C" fill-rule="evenodd" transform="matrix(1.00045 8.72665e-05 -8.7306e-05 1 626.75 1573.67)"/><path d="M154.381 645.17C158.148 621.426 162.042 598.811 165.623 577.622 169.482 554.789 172.969 533.49 175.807 513.945 177.463 502.526 178.91 491.742 180.084 481.703 181.257 471.662 182.145 462.377 182.817 453.872 183.475 445.469 183.903 437.834 184.184 431.176 184.464 424.517 184.583 418.853 184.669 414.153 184.754 409.454 184.836 405.723 184.977 403.165 185.118 400.607 185.339 399.2 185.727 399.022 186.114 398.844 186.659 399.92 187.27 402.264 187.88 404.609 188.57 408.261 189.209 413.072 189.849 417.884 190.41 423.869 190.796 430.995 191.183 438.121 191.353 446.323 191.237 455.403 191.127 464.579 190.758 474.681 190.047 485.484 189.336 496.288 188.308 507.857 187.005 519.889 184.784 540.458 181.811 562.702 178.32 586.087 175.489 605.051 172.288 624.881 169.106 645.17L154.381 645.17Z" fill="#00892C" fill-rule="evenodd" transform="matrix(1.00045 8.72665e-05 -8.7306e-05 1 626.75 1573.67)"/><path d="M216.015 645.17C216.097 640.92 216.206 636.72 216.279 632.417 216.288 631.992 216.273 631.545 216.279 631.12 216.876 594.797 217.159 560.142 217.496 528.446 217.833 496.751 218.26 468.024 218.872 443.93 219.484 419.834 220.275 400.355 221.252 386.865 222.23 373.375 223.364 365.898 224.532 365.898 225.7 365.898 226.817 373.329 227.865 386.757 228.913 400.185 229.908 419.579 230.828 443.606 231.748 467.633 232.584 496.325 233.103 528.231 233.621 560.136 233.809 595.301 233.208 632.31 233.201 632.744 233.215 633.174 233.208 633.608 233.145 637.505 233.026 641.312 232.944 645.172L216.015 645.172 216.016 645.172Z" fill="#00892C" fill-rule="evenodd" transform="matrix(1.00045 8.72665e-05 -8.7306e-05 1 626.75 1573.67)"/><path d="M260.328 645.17C260.685 626.988 261.444 609.543 262.615 593.566 264.033 574.21 266.027 556.982 268.24 542.926 270.454 528.869 272.851 517.966 274.846 510.747 276.84 503.528 278.392 499.976 279.128 500.589 279.864 501.202 279.717 505.931 279.056 513.861 278.394 521.792 277.264 532.947 276.152 546.856 275.041 560.764 273.972 577.411 273.212 596.087 272.596 611.251 272.206 627.818 271.942 645.17L260.328 645.17Z" fill="#00892C" fill-rule="evenodd" transform="matrix(1.00045 8.72665e-05 -8.7306e-05 1 626.75 1573.67)"/><path d="M408.275 351.093C407.838 351.079 407.13 352.2 406.203 354.516 405.144 357.162 403.798 361.372 402.323 367.034 400.849 372.697 399.256 379.826 397.738 388.47 396.221 397.113 394.791 407.291 393.682 418.732 392.667 429.225 391.943 440.779 391.566 453.227 391.19 465.674 391.183 479.018 391.61 492.946 392.248 513.508 393.716 535.368 396.019 557.973 398.322 580.577 401.448 603.905 405.012 627.504 405.739 632.315 406.475 637.02 407.217 641.734 407.507 643.59 407.806 645.386 408.098 647.228L422.824 647.228C422.082 642.498 421.356 637.882 420.619 633.088 419.906 628.424 419.213 623.761 418.503 619.038 415.022 595.871 411.882 573.332 409.377 551.849 406.873 530.365 405.021 509.931 403.911 490.695 403.156 477.707 402.709 465.267 402.588 453.678 402.468 442.089 402.672 431.328 403.073 421.434 403.94 399.907 405.819 382.669 407.173 370.728 407.85 364.757 408.371 360.068 408.628 356.767 408.885 353.468 408.862 351.586 408.452 351.183 408.4 351.133 408.338 351.095 408.275 351.094L408.275 351.093Z" fill="#00892C" fill-rule="evenodd" transform="matrix(1.00045 8.72665e-05 -8.7306e-05 1 626.75 1573.67)"/><path d="M336.958 353.138C336.799 353.073 336.584 353.196 336.43 353.677 336.276 354.158 336.204 355.084 336.166 355.728 336.087 356.866 336.08 358.343 336.166 360.045 336.336 363.408 336.83 367.927 337.54 373.319 338.951 384.036 341.333 398.764 344.196 416.704 349.848 452.105 357.522 500.729 363.478 558.081 366.37 585.96 368.787 615.94 370.451 647.224L387.514 647.224C385.704 613.045 382.656 580.483 378.956 550.635 375.297 521.082 370.996 494.156 366.595 470.342 362.194 446.529 357.707 425.85 353.6 408.827 349.423 391.508 345.694 378.088 342.824 368.68 341.368 363.895 340.173 360.259 339.232 357.672 338.75 356.337 338.346 355.382 338.016 354.651 337.802 353.978 337.549 353.883 337.382 353.679 337.216 353.476 337.119 353.205 336.96 353.139Z" fill="#00892C" fill-rule="evenodd" transform="matrix(1.00045 8.72665e-05 -8.7306e-05 1 626.75 1573.67)"/><path d="M305.949 410.268C305.053 410.884 305.365 418.325 306.523 431.253 307.681 444.18 309.669 462.657 311.989 485.473 314.309 508.287 316.95 535.382 318.955 565.63 320.63 590.908 321.855 618.401 322.041 647.229L336.016 647.229C335.631 616.62 333.927 587.703 331.563 561.487 328.752 530.318 325.072 502.862 321.467 480.249 317.863 457.634 314.344 439.92 311.592 427.92 308.84 415.921 306.846 409.651 305.949 410.268Z" fill="#00892C" fill-rule="evenodd" transform="matrix(1.00045 8.72665e-05 -8.7306e-05 1 626.75 1573.67)"/><path d="M447.4 416.058C446.356 416.058 445.378 422.046 444.423 432.66 443.468 443.274 442.518 458.559 441.588 477.543 440.659 496.527 439.775 519.164 439.084 544.434 438.393 569.703 437.915 597.618 438.186 627.057 438.195 628.035 438.223 628.977 438.233 629.952 438.283 635.032 438.371 640.101 438.47 645.106L453.588 645.106C453.509 639.873 453.412 634.613 453.352 629.276 453.342 628.326 453.314 627.43 453.305 626.477 453.033 597.777 453.048 570.235 452.974 545.108 452.9 519.981 452.751 497.267 452.313 478.121 451.875 458.976 451.182 443.474 450.328 432.755 449.475 422.038 448.442 416.057 447.399 416.057Z" fill="#00892C" fill-rule="evenodd" transform="matrix(1.00045 8.72665e-05 -8.7306e-05 1 626.75 1573.67)"/><path d="M461.264 439.896C460.337 440.483 460.409 446.906 461.044 458 461.678 469.093 462.881 484.88 464.13 504.383 465.379 523.886 466.643 547.15 467.657 573.103 468.551 595.969 469.224 620.997 469.729 647.227L483.837 647.227C483.256 620.025 482.165 593.958 480.574 570.221 478.795 543.679 476.432 519.986 473.873 500.421 471.314 480.856 468.57 465.407 466.29 455.028 464.01 444.649 462.192 439.31 461.264 439.897Z" fill="#00892C" fill-rule="evenodd" transform="matrix(1.00045 8.72665e-05 -8.7306e-05 1 626.75 1573.67)"/><path d="M95.9204 653.877C95.9519 648.991 95.9635 644.101 95.9204 639.126 95.8873 635.634 95.805 632.097 95.7304 628.568 95.2725 606.895 94.0116 586.066 91.8543 567.003 89.6969 547.94 86.6623 530.629 82.962 515.531 79.5839 501.518 75.6648 489.415 71.7135 479.431 67.7623 469.446 63.7645 461.6 60.2366 455.441 52.2628 444.575 47.696 437.122 48.1142 435.024 48.557 432.951 54.0131 436.506 63.4672 444.806 67.8068 449.987 72.766 457.42 77.7555 467.475 82.7451 477.531 87.738 490.28 92.0821 505.516 96.6544 521.753 100.475 540.581 103.178 561.258 105.881 581.934 107.484 604.422 107.928 627.558 108.001 631.325 108.028 635.102 108.042 638.815 108.066 643.904 108.028 648.889 107.966 653.876L95.9195 653.876 95.9196 653.876 95.9196 653.876Z" fill="#00892C" fill-rule="evenodd" transform="matrix(1.00045 8.72665e-05 -8.7306e-05 1 626.75 1573.67)"/><path d="M135.555 653.877C135.813 649.036 136.1 644.187 136.315 639.283 137.594 610.205 138 581.976 137.633 555.34 137.208 524.155 135.704 495.108 133.681 469.222 131.658 443.337 129.135 420.665 126.79 401.84 124.445 383.014 122.32 368.025 121.015 357.539 119.709 347.053 119.216 341.049 120.052 340.253 120.887 339.457 122.964 343.942 125.828 353.295 128.692 362.649 132.365 376.902 136.113 395.526 139.861 414.15 143.649 437.199 146.752 463.944 149.856 490.689 152.24 521.116 153.187 553.995 153.991 582.021 153.813 611.774 152.478 642.285 152.307 646.184 152.124 650.021 151.92 653.878L135.555 653.878Z" fill="#00892C" fill-rule="evenodd" transform="matrix(1.00045 8.72665e-05 -8.7306e-05 1 626.75 1573.67)"/><path d="M170.103 653.877C173.351 633.41 176.707 613.916 179.794 595.651 183.12 575.97 186.126 557.61 188.572 540.764 189.999 530.92 191.247 521.625 192.258 512.971 193.269 504.317 194.035 496.312 194.614 488.982 195.181 481.738 195.551 475.157 195.792 469.417 196.034 463.677 196.136 458.796 196.21 454.744 196.284 450.693 196.355 447.477 196.476 445.273 196.597 443.068 196.788 441.855 197.122 441.701 197.456 441.548 197.926 442.475 198.452 444.496 198.978 446.517 199.573 449.665 200.124 453.812 200.675 457.96 201.159 463.12 201.492 469.262 201.825 475.404 201.972 482.475 201.872 490.301 201.777 498.21 201.459 506.918 200.846 516.231 200.234 525.543 199.347 535.515 198.224 545.888 196.31 563.617 193.747 582.791 190.738 602.949 188.298 619.296 185.539 636.389 182.796 653.878L170.104 653.878Z" fill="#00892C" fill-rule="evenodd" transform="matrix(1.00045 8.72665e-05 -8.7306e-05 1 626.75 1573.67)"/><path d="M223.228 653.877C223.298 650.214 223.393 646.594 223.456 642.884 223.462 642.518 223.45 642.133 223.456 641.766 223.97 610.456 224.214 580.584 224.504 553.263 224.795 525.943 225.162 501.181 225.69 480.412 226.218 459.642 226.9 442.851 227.742 431.223 228.585 419.594 229.562 413.15 230.569 413.15 231.576 413.15 232.539 419.555 233.442 431.129 234.346 442.703 235.203 459.421 235.996 480.131 236.789 500.842 237.51 525.575 237.957 553.076 238.404 580.578 238.566 610.889 238.048 642.79 238.042 643.163 238.053 643.534 238.048 643.908 237.993 647.268 237.891 650.548 237.82 653.876L223.228 653.876Z" fill="#00892C" fill-rule="evenodd" transform="matrix(1.00045 8.72665e-05 -8.7306e-05 1 626.75 1573.67)"/><path d="M261.418 653.877C261.726 638.205 262.38 623.168 263.389 609.396 264.611 592.71 266.33 577.861 268.238 565.744 270.146 553.628 272.213 544.23 273.932 538.008 275.65 531.785 276.989 528.723 277.623 529.252 278.257 529.78 278.131 533.856 277.561 540.692 276.99 547.528 276.016 557.143 275.058 569.133 274.1 581.121 273.178 595.471 272.524 611.57 271.992 624.64 271.656 638.922 271.429 653.878L261.418 653.878Z" fill="#00892C" fill-rule="evenodd" transform="matrix(1.00045 8.72665e-05 -8.7306e-05 1 626.75 1573.67)"/><path d="M388.952 400.388C388.575 400.377 387.964 401.342 387.165 403.338 386.252 405.619 385.092 409.248 383.821 414.129 382.55 419.01 381.177 425.156 379.869 432.606 378.561 440.056 377.329 448.828 376.373 458.691 375.498 467.735 374.874 477.696 374.549 488.424 374.225 499.154 374.218 510.656 374.587 522.661 375.136 540.385 376.402 559.228 378.387 578.713 380.372 598.197 383.067 618.305 386.139 638.647 386.766 642.794 387.4 646.849 388.039 650.913 388.29 652.513 388.548 654.062 388.799 655.649L401.492 655.649C400.852 651.572 400.227 647.593 399.591 643.46 398.977 639.441 398.379 635.421 397.767 631.349 394.767 611.38 392.06 591.953 389.901 573.434 387.743 554.915 386.146 537.301 385.189 520.719 384.539 509.525 384.153 498.801 384.049 488.812 383.945 478.822 384.122 469.546 384.467 461.019 385.214 442.462 386.834 427.605 388.001 417.31 388.585 412.163 389.033 408.121 389.255 405.277 389.477 402.433 389.457 400.811 389.103 400.464 389.059 400.421 389.005 400.388 388.951 400.386L388.951 400.386Z" fill="#00892C" fill-rule="evenodd" transform="matrix(1.00045 8.72665e-05 -8.7306e-05 1 626.75 1573.67)"/><path d="M327.473 402.152C327.335 402.096 327.151 402.203 327.018 402.617 326.885 403.032 326.822 403.83 326.79 404.385 326.722 405.366 326.716 406.639 326.79 408.106 326.937 411.005 327.362 414.9 327.974 419.548 329.191 428.786 331.243 441.481 333.711 456.944 338.583 487.459 345.198 529.372 350.332 578.811 352.824 602.842 354.908 628.685 356.342 655.651L371.05 655.651C369.489 626.189 366.862 598.121 363.673 572.392 360.518 546.918 356.812 523.708 353.018 503.181 349.224 482.655 345.357 464.831 341.816 450.157 338.216 435.229 335.001 423.66 332.527 415.552 331.272 411.427 330.242 408.293 329.431 406.063 329.016 404.912 328.667 404.089 328.383 403.458 328.199 402.878 327.98 402.797 327.837 402.621 327.693 402.446 327.61 402.212 327.473 402.156Z" fill="#00892C" fill-rule="evenodd" transform="matrix(1.00045 8.72665e-05 -8.7306e-05 1 626.75 1573.67)"/><path d="M300.75 451.395C299.977 451.927 300.246 458.341 301.244 469.484 302.242 480.626 303.957 496.553 305.956 516.219 307.956 535.885 310.233 559.241 311.961 585.314 313.404 607.102 314.46 630.801 314.621 655.651L326.667 655.651C326.336 629.266 324.867 604.34 322.829 581.743 320.406 554.876 317.233 531.21 314.127 511.716 311.02 492.224 307.986 476.954 305.614 466.61 303.242 456.267 301.523 450.863 300.75 451.394Z" fill="#00892C" fill-rule="evenodd" transform="matrix(1.00045 8.72665e-05 -8.7306e-05 1 626.75 1573.67)"/><path d="M422.669 456.387C421.77 456.387 420.926 461.548 420.103 470.697 419.28 479.846 418.461 493.022 417.66 509.385 416.858 525.749 416.097 545.262 415.501 567.044 414.906 588.825 414.494 612.888 414.728 638.263 414.734 639.106 414.759 639.918 414.768 640.759 414.811 645.138 414.887 649.507 414.972 653.821L428.004 653.821C427.936 649.311 427.852 644.776 427.801 640.176 427.793 639.358 427.768 638.585 427.76 637.763 427.526 613.025 427.539 589.284 427.475 567.626 427.411 545.967 427.282 526.387 426.905 509.884 426.527 493.382 425.93 480.019 425.194 470.781 424.458 461.542 423.569 456.387 422.669 456.387Z" fill="#00892C" fill-rule="evenodd" transform="matrix(1.00045 8.72665e-05 -8.7306e-05 1 626.75 1573.67)"/><path d="M434.624 476.935C433.825 477.441 433.888 482.978 434.434 492.539 434.981 502.101 436.018 515.71 437.094 532.521 438.171 549.332 439.26 569.385 440.135 591.755 440.905 611.465 441.486 633.039 441.921 655.649L454.081 655.649C453.581 632.201 452.64 609.732 451.269 589.271 449.736 566.391 447.699 545.969 445.493 529.104 443.287 512.239 440.922 498.924 438.957 489.977 436.991 481.03 435.424 476.428 434.625 476.934Z" fill="#00892C" fill-rule="evenodd" transform="matrix(1.00045 8.72665e-05 -8.7306e-05 1 626.75 1573.67)"/><path d="M292.438 653.877C292.18 649.036 291.893 644.187 291.678 639.283 290.399 610.205 289.993 581.976 290.36 555.34 290.786 524.155 292.289 495.108 294.312 469.222 296.335 443.337 298.858 420.665 301.203 401.84 303.548 383.014 305.673 368.025 306.979 357.539 308.284 347.053 308.777 341.049 307.941 340.253 307.106 339.457 305.029 343.942 302.165 353.295 299.302 362.649 295.628 376.902 291.88 395.526 288.132 414.15 284.344 437.199 281.241 463.944 278.137 490.689 275.753 521.116 274.806 553.995 274.002 582.021 274.181 611.774 275.516 642.285 275.686 646.184 275.869 650.021 276.073 653.878L292.438 653.878Z" fill="#00892C" fill-rule="evenodd" transform="matrix(1.00045 8.72665e-05 -8.7306e-05 1 626.75 1573.67)"/><path d="M243.724 400.388C244.101 400.377 244.711 401.342 245.51 403.338 246.423 405.619 247.583 409.248 248.854 414.129 250.125 419.01 251.498 425.156 252.806 432.606 254.115 440.056 255.347 448.828 256.302 458.691 257.177 467.735 257.802 477.696 258.126 488.424 258.451 499.154 258.457 510.656 258.088 522.661 257.539 540.385 256.273 559.228 254.288 578.713 252.303 598.197 249.608 618.305 246.536 638.647 245.91 642.794 245.275 646.849 244.636 650.913 244.386 652.513 244.128 654.062 243.876 655.649L231.184 655.649C231.823 651.572 232.449 647.593 233.084 643.46 233.699 639.441 234.296 635.421 234.908 631.349 237.908 611.38 240.616 591.953 242.774 573.434 244.933 554.915 246.529 537.301 247.486 520.719 248.137 509.525 248.523 498.801 248.626 488.812 248.73 478.822 248.554 469.546 248.208 461.019 247.461 442.462 245.841 427.605 244.674 417.31 244.091 412.163 243.642 408.121 243.42 405.277 243.198 402.433 243.218 400.811 243.572 400.464 243.616 400.421 243.67 400.388 243.724 400.386L243.724 400.386Z" fill="#00892C" fill-rule="evenodd" transform="matrix(1.00045 8.72665e-05 -8.7306e-05 1 626.75 1573.67)"/><path d="M421.974 416.183C422.111 416.127 422.296 416.234 422.429 416.648 422.562 417.063 422.624 417.861 422.657 418.416 422.725 419.397 422.731 420.67 422.657 422.136 422.51 425.035 422.085 428.931 421.473 433.579 420.256 442.817 418.204 455.512 415.736 470.976 410.864 501.49 404.249 543.404 399.115 592.843 396.622 616.874 394.539 642.716 393.105 669.681L378.397 669.681C379.958 640.221 382.585 612.152 385.774 586.424 388.929 560.949 392.635 537.739 396.429 517.213 400.223 496.687 404.09 478.863 407.631 464.188 411.231 449.261 414.446 437.692 416.92 429.582 418.175 425.458 419.205 422.324 420.016 420.094 420.431 418.943 420.779 418.12 421.064 417.489 421.248 416.909 421.467 416.828 421.61 416.652 421.753 416.476 421.837 416.243 421.974 416.187Z" fill="#00892C" fill-rule="evenodd" transform="matrix(1.00045 8.72665e-05 -8.7306e-05 1 626.75 1573.67)"/><path d="M484.407 451.395C485.18 451.927 484.911 458.341 483.913 469.484 482.915 480.626 481.201 496.553 479.201 516.219 477.201 535.885 474.924 559.241 473.197 585.314 471.753 607.102 470.697 630.801 470.537 655.651L458.49 655.651C458.822 629.266 460.29 604.34 462.328 581.743 464.751 554.876 467.923 531.21 471.03 511.716 474.137 492.224 477.171 476.954 479.543 466.61 481.915 456.267 483.634 450.863 484.407 451.394Z" fill="#00892C" fill-rule="evenodd" transform="matrix(1.00045 8.72665e-05 -8.7306e-05 1 626.75 1573.67)"/><path d="M181.156 447.97C182.055 447.97 182.899 453.131 183.721 462.281 184.544 471.431 185.364 484.606 186.165 500.97 186.966 517.334 187.728 536.846 188.324 558.628 188.919 580.409 189.331 604.472 189.097 629.847 189.09 630.69 189.066 631.503 189.057 632.344 189.014 636.722 188.938 641.092 188.853 645.406L175.821 645.406C175.889 640.896 175.973 636.361 176.024 631.761 176.032 630.942 176.057 630.17 176.065 629.348 176.299 604.61 176.286 580.869 176.35 559.211 176.414 537.552 176.543 517.973 176.92 501.469 177.298 484.967 177.895 471.604 178.631 462.366 179.366 453.127 180.256 447.972 181.156 447.972Z" fill="#00892C" fill-rule="evenodd" transform="matrix(1.00045 8.72665e-05 -8.7306e-05 1 626.75 1573.67)"/><path d="M270.862 465.706C271.661 466.212 271.599 471.749 271.052 481.31 270.505 490.872 269.469 504.481 268.392 521.292 267.315 538.103 266.226 558.156 265.352 580.527 264.581 600.236 264.001 621.81 263.566 644.42L251.405 644.42C251.905 620.972 252.846 598.503 254.217 578.042 255.75 555.162 257.788 534.741 259.993 517.876 262.199 501.011 264.564 487.695 266.529 478.748 268.495 469.801 270.062 465.2 270.862 465.705Z" fill="#00892C" fill-rule="evenodd" transform="matrix(1.00045 8.72665e-05 -8.7306e-05 1 626.75 1573.67)"/><path d="M469.369 673.294C469.405 667.774 469.418 662.25 469.369 656.631 469.332 652.686 469.239 648.69 469.155 644.703 468.638 620.219 467.213 596.691 464.776 575.156 462.339 553.621 458.911 534.065 454.731 517.01 450.915 501.18 446.487 487.508 442.024 476.229 437.561 464.95 433.044 456.086 429.06 449.13 420.052 436.854 414.893 428.435 415.365 426.064 415.866 423.723 422.029 427.739 432.709 437.114 437.611 442.967 443.213 451.363 448.851 462.722 454.487 474.082 460.127 488.484 465.035 505.696 470.2 524.039 474.516 545.308 477.57 568.666 480.624 592.023 482.435 617.427 482.936 643.563 483.018 647.818 483.049 652.085 483.065 656.28 483.092 662.028 483.05 667.661 482.979 673.293L469.371 673.293 469.371 673.293Z" fill="#00892C" fill-rule="evenodd" transform="matrix(1.00045 8.72665e-05 -8.7306e-05 1 626.75 1573.67)"/><path d="M514.14 673.294C514.43 667.825 514.754 662.348 514.998 656.807 516.443 623.958 516.901 592.07 516.486 561.978 516.006 526.75 514.307 493.936 512.022 464.694 509.737 435.453 506.887 409.841 504.238 388.574 501.589 367.307 499.188 350.374 497.713 338.529 496.238 326.683 495.682 319.901 496.626 319.002 497.569 318.102 499.915 323.168 503.15 333.735 506.386 344.302 510.535 360.402 514.769 381.442 519.004 402.482 523.283 428.519 526.789 458.732 530.295 488.945 532.988 523.318 534.058 560.46 534.966 592.122 534.765 625.733 533.257 660.199 533.064 664.604 532.858 668.939 532.627 673.295L514.14 673.295Z" fill="#00892C" fill-rule="evenodd" transform="matrix(1.00045 8.72665e-05 -8.7306e-05 1 626.75 1573.67)"/><path d="M553.171 673.294C556.839 650.173 560.63 628.153 564.117 607.518 567.875 585.285 571.27 564.545 574.034 545.514 575.646 534.394 577.055 523.893 578.198 514.117 579.34 504.34 580.205 495.299 580.859 487.017 581.5 478.834 581.917 471.4 582.19 464.916 582.463 458.432 582.579 452.917 582.662 448.341 582.746 443.765 582.826 440.132 582.963 437.641 583.1 435.151 583.315 433.78 583.693 433.607 584.07 433.434 584.601 434.481 585.195 436.764 585.79 439.047 586.462 442.603 587.084 447.288 587.707 451.974 588.253 457.802 588.63 464.741 589.006 471.679 589.171 479.667 589.059 488.508 588.952 497.443 588.592 507.28 587.9 517.801 587.208 528.321 586.206 539.585 584.938 551.303 582.775 571.332 579.88 592.991 576.481 615.762 573.724 634.229 570.607 653.538 567.509 673.294L553.171 673.294Z" fill="#00892C" fill-rule="evenodd" transform="matrix(1.00045 8.72665e-05 -8.7306e-05 1 626.75 1573.67)"/><path d="M754.937 673.294C754.857 669.156 754.75 665.066 754.679 660.875 754.671 660.462 754.686 660.027 754.679 659.612 754.098 624.243 753.822 590.497 753.494 559.634 753.166 528.772 752.751 500.799 752.155 477.336 751.559 453.874 750.789 434.905 749.837 421.769 748.885 408.632 747.78 401.352 746.643 401.352 745.505 401.352 744.418 408.589 743.398 421.664 742.377 434.739 741.409 453.625 740.513 477.02 739.617 500.416 738.803 528.357 738.298 559.424 737.793 590.491 737.609 624.734 738.195 660.771 738.201 661.193 738.188 661.612 738.195 662.034 738.257 665.829 738.372 669.536 738.452 673.295L754.936 673.295Z" fill="#00892C" fill-rule="evenodd" transform="matrix(1.00045 8.72665e-05 -8.7306e-05 1 626.75 1573.67)"/><path d="M711.796 673.294C711.449 655.589 710.709 638.603 709.57 623.045 708.189 604.196 706.247 587.421 704.092 573.733 701.937 560.046 699.602 549.428 697.66 542.399 695.718 535.37 694.206 531.912 693.49 532.508 692.773 533.105 692.916 537.71 693.561 545.432 694.205 553.154 695.305 564.017 696.388 577.56 697.47 591.103 698.511 607.313 699.25 625.499 699.851 640.265 700.23 656.398 700.487 673.294L711.796 673.294Z" fill="#00892C" fill-rule="evenodd" transform="matrix(1.00045 8.72665e-05 -8.7306e-05 1 626.75 1573.67)"/><path d="M800.402 386.928C799.977 386.914 799.287 388.005 798.385 390.26 797.353 392.837 796.042 396.937 794.607 402.451 793.171 407.965 791.62 414.908 790.142 423.324 788.664 431.74 787.272 441.651 786.193 452.792 785.204 463.01 784.499 474.261 784.132 486.381 783.766 498.501 783.759 511.495 784.175 525.057 784.795 545.08 786.226 566.367 788.468 588.378 790.71 610.388 793.755 633.103 797.225 656.083 797.933 660.768 798.65 665.349 799.372 669.939 799.655 671.746 799.946 673.496 800.23 675.289L814.568 675.289C813.846 670.683 813.14 666.188 812.422 661.52 811.728 656.979 811.052 652.438 810.361 647.839 806.972 625.28 803.913 603.334 801.475 582.414 799.037 561.493 797.233 541.595 796.152 522.864 795.417 510.218 794.981 498.104 794.864 486.819 794.747 475.534 794.946 465.056 795.336 455.422 796.18 434.46 798.01 417.676 799.329 406.046 799.988 400.232 800.495 395.665 800.745 392.452 800.996 389.239 800.973 387.407 800.573 387.015 800.523 386.966 800.463 386.929 800.402 386.927L800.402 386.927Z" fill="#00892C" fill-rule="evenodd" transform="matrix(1.00045 8.72665e-05 -8.7306e-05 1 626.75 1573.67)"/><path d="M637.169 388.931C637.325 388.867 637.533 388.988 637.683 389.456 637.833 389.924 637.904 390.826 637.941 391.453 638.018 392.561 638.025 394 637.941 395.657 637.775 398.931 637.294 403.332 636.603 408.582 635.228 419.018 632.91 433.358 630.122 450.827 624.618 485.298 617.145 532.647 611.346 588.489 608.53 615.636 606.176 644.83 604.556 675.292L587.941 675.292C589.703 642.01 592.672 610.303 596.274 581.238 599.838 552.461 604.025 526.241 608.312 503.053 612.598 479.864 616.966 459.729 620.965 443.153 625.033 426.289 628.664 413.22 631.459 404.06 632.877 399.401 634.041 395.86 634.957 393.341 635.426 392.041 635.819 391.111 636.14 390.399 636.349 389.743 636.596 389.651 636.758 389.453 636.92 389.255 637.014 388.991 637.169 388.927Z" fill="#00892C" fill-rule="evenodd" transform="matrix(1.00045 8.72665e-05 -8.7306e-05 1 626.75 1573.67)"/><path d="M667.358 444.546C668.231 445.146 667.928 452.392 666.8 464.98 665.672 477.568 663.736 495.56 661.477 517.776 659.218 539.992 656.646 566.375 654.694 595.83 653.063 620.444 651.87 647.215 651.689 675.287L638.081 675.287C638.455 645.481 640.115 617.322 642.417 591.795 645.153 561.444 648.738 534.708 652.247 512.689 655.757 490.668 659.184 473.419 661.863 461.734 664.543 450.05 666.485 443.945 667.358 444.545Z" fill="#00892C" fill-rule="evenodd" transform="matrix(1.00045 8.72665e-05 -8.7306e-05 1 626.75 1573.67)"/><path d="M838.489 450.191C837.473 450.191 836.52 456.021 835.591 466.358 834.661 476.694 833.735 491.577 832.83 510.063 831.925 528.548 831.064 550.592 830.392 575.198 829.719 599.804 829.254 626.986 829.518 655.652 829.526 656.604 829.553 657.522 829.563 658.471 829.612 663.418 829.698 668.354 829.794 673.228L844.516 673.228C844.438 668.132 844.344 663.009 844.285 657.813 844.276 656.888 844.248 656.016 844.24 655.088 843.975 627.141 843.99 600.323 843.918 575.855 843.845 551.388 843.7 529.27 843.273 510.626 842.847 491.983 842.172 476.887 841.341 466.451 840.51 456.015 839.505 450.191 838.489 450.191Z" fill="#00892C" fill-rule="evenodd" transform="matrix(1.00045 8.72665e-05 -8.7306e-05 1 626.75 1573.67)"/><path d="M852.001 473.406C851.098 473.978 851.168 480.232 851.786 491.034 852.404 501.837 853.575 517.209 854.791 536.201 856.008 555.192 857.238 577.845 858.226 603.117 859.096 625.383 859.752 649.753 860.243 675.295L873.98 675.295C873.415 648.807 872.353 623.423 870.804 600.311 869.072 574.465 866.77 551.395 864.278 532.342 861.787 513.291 859.115 498.248 856.895 488.141 854.675 478.034 852.904 472.836 852.001 473.408Z" fill="#00892C" fill-rule="evenodd" transform="matrix(1.00045 8.72665e-05 -8.7306e-05 1 626.75 1573.67)"/><path d="M469.369 673.294C469.405 667.774 469.418 662.25 469.369 656.631 469.332 652.686 469.239 648.69 469.155 644.703 468.638 620.219 467.213 596.691 464.776 575.156 462.339 553.621 458.911 534.065 454.731 517.01 450.915 501.18 446.487 487.508 442.024 476.229 437.561 464.95 433.044 456.086 429.06 449.13 420.052 436.854 414.893 428.435 415.365 426.064 415.866 423.723 422.029 427.739 432.709 437.114 437.611 442.967 443.213 451.363 448.851 462.722 454.487 474.082 460.127 488.484 465.035 505.696 470.2 524.039 474.516 545.308 477.57 568.666 480.624 592.023 482.435 617.427 482.936 643.563 483.018 647.818 483.049 652.085 483.065 656.28 483.092 662.028 483.05 667.661 482.979 673.293L469.371 673.293 469.371 673.293Z" fill="#00892C" fill-rule="evenodd" transform="matrix(1.00045 8.72665e-05 -8.7306e-05 1 626.75 1573.67)"/><path d="M514.14 673.294C514.43 667.825 514.754 662.348 514.998 656.807 516.443 623.958 516.901 592.07 516.486 561.978 516.006 526.75 514.307 493.936 512.022 464.694 509.737 435.453 506.887 409.841 504.238 388.574 501.589 367.307 499.188 350.374 497.713 338.529 496.238 326.683 495.682 319.901 496.626 319.002 497.569 318.102 499.915 323.168 503.15 333.735 506.386 344.302 510.535 360.402 514.769 381.442 519.004 402.482 523.283 428.519 526.789 458.732 530.295 488.945 532.988 523.318 534.058 560.46 534.966 592.122 534.765 625.733 533.257 660.199 533.064 664.604 532.858 668.939 532.627 673.295L514.14 673.295Z" fill="#00892C" fill-rule="evenodd" transform="matrix(1.00045 8.72665e-05 -8.7306e-05 1 626.75 1573.67)"/><path d="M553.171 673.294C556.839 650.173 560.63 628.153 564.117 607.518 567.875 585.285 571.27 564.545 574.034 545.514 575.646 534.394 577.055 523.893 578.198 514.117 579.34 504.34 580.205 495.299 580.859 487.017 581.5 478.834 581.917 471.4 582.19 464.916 582.463 458.432 582.579 452.917 582.662 448.341 582.746 443.765 582.826 440.132 582.963 437.641 583.1 435.151 583.315 433.78 583.693 433.607 584.07 433.434 584.601 434.481 585.195 436.764 585.79 439.047 586.462 442.603 587.084 447.288 587.707 451.974 588.253 457.802 588.63 464.741 589.006 471.679 589.171 479.667 589.059 488.508 588.952 497.443 588.592 507.28 587.9 517.801 587.208 528.321 586.206 539.585 584.938 551.303 582.775 571.332 579.88 592.991 576.481 615.762 573.724 634.229 570.607 653.538 567.509 673.294L553.171 673.294Z" fill="#00892C" fill-rule="evenodd" transform="matrix(1.00045 8.72665e-05 -8.7306e-05 1 626.75 1573.67)"/><path d="M754.937 673.294C754.857 669.156 754.75 665.066 754.679 660.875 754.671 660.462 754.686 660.027 754.679 659.612 754.098 624.243 753.822 590.497 753.494 559.634 753.166 528.772 752.751 500.799 752.155 477.336 751.559 453.874 750.789 434.905 749.837 421.769 748.885 408.632 747.78 401.352 746.643 401.352 745.505 401.352 744.418 408.589 743.398 421.664 742.377 434.739 741.409 453.625 740.513 477.02 739.617 500.416 738.803 528.357 738.298 559.424 737.793 590.491 737.609 624.734 738.195 660.771 738.201 661.193 738.188 661.612 738.195 662.034 738.257 665.829 738.372 669.536 738.452 673.295L754.936 673.295Z" fill="#00892C" fill-rule="evenodd" transform="matrix(1.00045 8.72665e-05 -8.7306e-05 1 626.75 1573.67)"/><path d="M711.796 673.294C711.449 655.589 710.709 638.603 709.57 623.045 708.189 604.196 706.247 587.421 704.092 573.733 701.937 560.046 699.602 549.428 697.66 542.399 695.718 535.37 694.206 531.912 693.49 532.508 692.773 533.105 692.916 537.71 693.561 545.432 694.205 553.154 695.305 564.017 696.388 577.56 697.47 591.103 698.511 607.313 699.25 625.499 699.851 640.265 700.23 656.398 700.487 673.294L711.796 673.294Z" fill="#00892C" fill-rule="evenodd" transform="matrix(1.00045 8.72665e-05 -8.7306e-05 1 626.75 1573.67)"/><path d="M800.402 386.928C799.977 386.914 799.287 388.005 798.385 390.26 797.353 392.837 796.042 396.937 794.607 402.451 793.171 407.965 791.62 414.908 790.142 423.324 788.664 431.74 787.272 441.651 786.193 452.792 785.204 463.01 784.499 474.261 784.132 486.381 783.766 498.501 783.759 511.495 784.175 525.057 784.795 545.08 786.226 566.367 788.468 588.378 790.71 610.388 793.755 633.103 797.225 656.083 797.933 660.768 798.65 665.349 799.372 669.939 799.655 671.746 799.946 673.496 800.23 675.289L814.568 675.289C813.846 670.683 813.14 666.188 812.422 661.52 811.728 656.979 811.052 652.438 810.361 647.839 806.972 625.28 803.913 603.334 801.475 582.414 799.037 561.493 797.233 541.595 796.152 522.864 795.417 510.218 794.981 498.104 794.864 486.819 794.747 475.534 794.946 465.056 795.336 455.422 796.18 434.46 798.01 417.676 799.329 406.046 799.988 400.232 800.495 395.665 800.745 392.452 800.996 389.239 800.973 387.407 800.573 387.015 800.523 386.966 800.463 386.929 800.402 386.927L800.402 386.927Z" fill="#00892C" fill-rule="evenodd" transform="matrix(1.00045 8.72665e-05 -8.7306e-05 1 626.75 1573.67)"/><path d="M637.169 388.931C637.325 388.867 637.533 388.988 637.683 389.456 637.833 389.924 637.904 390.826 637.941 391.453 638.018 392.561 638.025 394 637.941 395.657 637.775 398.931 637.294 403.332 636.603 408.582 635.228 419.018 632.91 433.358 630.122 450.827 624.618 485.298 617.145 532.647 611.346 588.489 608.53 615.636 606.176 644.83 604.556 675.292L587.941 675.292C589.703 642.01 592.672 610.303 596.274 581.238 599.838 552.461 604.025 526.241 608.312 503.053 612.598 479.864 616.966 459.729 620.965 443.153 625.033 426.289 628.664 413.22 631.459 404.06 632.877 399.401 634.041 395.86 634.957 393.341 635.426 392.041 635.819 391.111 636.14 390.399 636.349 389.743 636.596 389.651 636.758 389.453 636.92 389.255 637.014 388.991 637.169 388.927Z" fill="#00892C" fill-rule="evenodd" transform="matrix(1.00045 8.72665e-05 -8.7306e-05 1 626.75 1573.67)"/><path d="M667.358 444.546C668.231 445.146 667.928 452.392 666.8 464.98 665.672 477.568 663.736 495.56 661.477 517.776 659.218 539.992 656.646 566.375 654.694 595.83 653.063 620.444 651.87 647.215 651.689 675.287L638.081 675.287C638.455 645.481 640.115 617.322 642.417 591.795 645.153 561.444 648.738 534.708 652.247 512.689 655.757 490.668 659.184 473.419 661.863 461.734 664.543 450.05 666.485 443.945 667.358 444.545Z" fill="#00892C" fill-rule="evenodd" transform="matrix(1.00045 8.72665e-05 -8.7306e-05 1 626.75 1573.67)"/><path d="M838.489 450.191C837.473 450.191 836.52 456.021 835.591 466.358 834.661 476.694 833.735 491.577 832.83 510.063 831.925 528.548 831.064 550.592 830.392 575.198 829.719 599.804 829.254 626.986 829.518 655.652 829.526 656.604 829.553 657.522 829.563 658.471 829.612 663.418 829.698 668.354 829.794 673.228L844.516 673.228C844.438 668.132 844.344 663.009 844.285 657.813 844.276 656.888 844.248 656.016 844.24 655.088 843.975 627.141 843.99 600.323 843.918 575.855 843.845 551.388 843.7 529.27 843.273 510.626 842.847 491.983 842.172 476.887 841.341 466.451 840.51 456.015 839.505 450.191 838.489 450.191Z" fill="#00892C" fill-rule="evenodd" transform="matrix(1.00045 8.72665e-05 -8.7306e-05 1 626.75 1573.67)"/><path d="M852.001 473.406C851.098 473.978 851.168 480.232 851.786 491.034 852.404 501.837 853.575 517.209 854.791 536.201 856.008 555.192 857.238 577.845 858.226 603.117 859.096 625.383 859.752 649.753 860.243 675.295L873.98 675.295C873.415 648.807 872.353 623.423 870.804 600.311 869.072 574.465 866.77 551.395 864.278 532.342 861.787 513.291 859.115 498.248 856.895 488.141 854.675 478.034 852.904 472.836 852.001 473.408Z" fill="#00892C" fill-rule="evenodd" transform="matrix(1.00045 8.72665e-05 -8.7306e-05 1 626.75 1573.67)"/><path d="M480.443 645.17C480.479 639.501 480.493 633.828 480.443 628.058 480.404 624.008 480.309 619.904 480.222 615.809 479.691 590.665 478.228 566.502 475.725 544.387 473.223 522.272 469.702 502.187 465.409 484.674 461.49 468.417 456.944 454.377 452.36 442.793 447.776 431.21 443.138 422.107 439.046 414.963 429.796 402.356 424.498 393.711 424.983 391.275 425.497 388.871 431.827 392.995 442.794 402.623 447.828 408.634 453.582 417.257 459.37 428.923 465.159 440.589 470.951 455.379 475.99 473.055 481.295 491.893 485.728 513.735 488.863 537.721 491.999 561.708 493.859 587.796 494.374 614.638 494.458 619.008 494.49 623.39 494.506 627.697 494.534 633.601 494.491 639.386 494.418 645.169L480.443 645.169 480.443 645.169Z" fill="#00892C" fill-rule="evenodd" transform="matrix(1.00045 8.72665e-05 -8.7306e-05 1 626.75 1573.67)"/><path d="M522.037 645.17C522.398 638.775 522.8 632.369 523.103 625.889 524.896 587.473 525.465 550.18 524.95 514.992 524.354 473.791 522.245 435.416 519.408 401.219 516.572 367.021 513.034 337.068 509.745 312.197 506.457 287.325 503.476 267.522 501.646 253.669 499.815 239.816 499.124 231.885 500.296 230.832 501.467 229.78 504.379 235.705 508.396 248.063 512.412 260.421 517.562 279.25 522.819 303.856 528.075 328.462 533.386 358.912 537.739 394.246 542.091 429.581 545.434 469.778 546.762 513.218 547.89 550.246 547.64 589.554 545.768 629.865 545.528 635.016 545.272 640.085 544.986 645.181L522.036 645.181Z" fill="#00892C" fill-rule="evenodd" transform="matrix(1.00045 8.72665e-05 -8.7306e-05 1 626.75 1573.67)"/><path d="M566.506 645.17C570.273 621.426 574.167 598.811 577.749 577.622 581.608 554.789 585.094 533.49 587.932 513.945 589.588 502.526 591.035 491.742 592.209 481.703 593.382 471.662 594.27 462.377 594.942 453.872 595.6 445.469 596.029 437.834 596.309 431.176 596.589 424.517 596.708 418.853 596.794 414.153 596.879 409.454 596.961 405.723 597.102 403.165 597.243 400.607 597.464 399.2 597.852 399.022 598.239 398.844 598.784 399.92 599.395 402.264 600.005 404.609 600.695 408.261 601.335 413.072 601.974 417.884 602.535 423.869 602.922 430.995 603.308 438.121 603.478 446.323 603.362 455.403 603.252 464.579 602.883 474.681 602.172 485.484 601.461 496.288 600.433 507.857 599.13 519.889 596.909 540.458 593.936 562.702 590.445 586.087 587.614 605.051 584.413 624.881 581.231 645.17L566.506 645.17Z" fill="#00892C" fill-rule="evenodd" transform="matrix(1.00045 8.72665e-05 -8.7306e-05 1 626.75 1573.67)"/><path d="M739.982 645.17C739.901 640.92 739.791 636.72 739.718 632.417 739.71 631.992 739.725 631.545 739.718 631.12 739.121 594.797 738.838 560.142 738.501 528.446 738.164 496.751 737.738 468.024 737.126 443.93 736.513 419.834 735.722 400.355 734.745 386.865 733.768 373.375 732.633 365.898 731.465 365.898 730.297 365.898 729.18 373.329 728.132 386.757 727.084 400.185 726.089 419.579 725.17 443.606 724.25 467.633 723.413 496.325 722.895 528.231 722.376 560.136 722.188 595.301 722.789 632.31 722.796 632.744 722.782 633.174 722.789 633.608 722.853 637.505 722.971 641.312 723.054 645.172L739.982 645.172Z" fill="#00892C" fill-rule="evenodd" transform="matrix(1.00045 8.72665e-05 -8.7306e-05 1 626.75 1573.67)"/><path d="M695.679 645.17C695.323 626.988 694.563 609.543 693.393 593.566 691.975 574.21 689.981 556.982 687.767 542.926 685.554 528.869 683.156 517.966 681.162 510.747 679.168 503.528 677.615 499.976 676.88 500.589 676.144 501.202 676.29 505.931 676.952 513.861 677.614 521.792 678.744 532.947 679.856 546.856 680.967 560.764 682.036 577.411 682.795 596.087 683.412 611.251 683.802 627.818 684.065 645.17L695.679 645.17Z" fill="#00892C" fill-rule="evenodd" transform="matrix(1.00045 8.72665e-05 -8.7306e-05 1 626.75 1573.67)"/><path d="M820.39 351.093C819.953 351.079 819.245 352.2 818.318 354.516 817.259 357.162 815.913 361.372 814.438 367.034 812.964 372.697 811.371 379.826 809.853 388.47 808.336 397.113 806.906 407.291 805.798 418.732 804.783 429.225 804.058 440.779 803.681 453.227 803.305 465.674 803.298 479.018 803.725 492.946 804.363 513.508 805.831 535.368 808.134 557.973 810.437 580.577 813.563 603.905 817.128 627.504 817.854 632.315 818.59 637.02 819.332 641.734 819.622 643.59 819.921 645.386 820.214 647.228L834.939 647.228C834.197 642.498 833.471 637.882 832.734 633.088 832.021 628.424 831.328 623.761 830.618 619.038 827.138 595.871 823.997 573.332 821.493 551.849 818.988 530.365 817.136 509.931 816.026 490.695 815.271 477.707 814.823 465.267 814.703 453.678 814.583 442.089 814.787 431.328 815.188 421.434 816.055 399.907 817.934 382.669 819.288 370.728 819.965 364.757 820.486 360.068 820.743 356.767 821 353.468 820.977 351.586 820.567 351.183 820.515 351.133 820.453 351.095 820.39 351.094L820.39 351.093Z" fill="#00892C" fill-rule="evenodd" transform="matrix(1.00045 8.72665e-05 -8.7306e-05 1 626.75 1573.67)"/><path d="M749.073 353.138C748.914 353.073 748.699 353.196 748.545 353.677 748.391 354.158 748.318 355.084 748.281 355.728 748.202 356.866 748.195 358.343 748.281 360.045 748.451 363.408 748.945 367.927 749.654 373.319 751.066 384.036 753.447 398.764 756.311 416.704 761.963 452.105 769.637 500.729 775.593 558.081 778.485 585.96 780.902 615.94 782.566 647.224L799.629 647.224C797.819 613.045 794.77 580.483 791.071 550.635 787.411 521.082 783.111 494.156 778.71 470.342 774.308 446.529 769.822 425.85 765.715 408.827 761.538 391.508 757.809 378.088 754.938 368.68 753.482 363.895 752.288 360.259 751.346 357.672 750.865 356.337 750.461 355.382 750.131 354.651 749.917 353.978 749.664 353.883 749.497 353.679 749.331 353.476 749.234 353.205 749.075 353.139Z" fill="#00892C" fill-rule="evenodd" transform="matrix(1.00045 8.72665e-05 -8.7306e-05 1 626.75 1573.67)"/><path d="M650.048 410.268C650.944 410.884 650.633 418.325 649.475 431.253 648.317 444.18 646.328 462.657 644.008 485.473 641.688 508.287 639.047 535.382 637.042 565.63 635.367 590.908 634.142 618.401 633.956 647.229L619.982 647.229C620.366 616.62 622.07 587.703 624.434 561.487 627.245 530.318 630.926 502.862 634.53 480.249 638.134 457.634 641.654 439.92 644.405 427.92 647.157 415.921 649.152 409.651 650.048 410.268Z" fill="#00892C" fill-rule="evenodd" transform="matrix(1.00045 8.72665e-05 -8.7306e-05 1 626.75 1573.67)"/><path d="M859.514 416.058C858.471 416.058 857.493 422.046 856.538 432.66 855.583 443.274 854.633 458.559 853.703 477.543 852.773 496.527 851.89 519.164 851.199 544.434 850.508 569.703 850.03 597.618 850.301 627.057 850.309 628.035 850.338 628.977 850.348 629.952 850.398 635.032 850.486 640.101 850.585 645.106L865.704 645.106C865.625 639.873 865.528 634.613 865.468 629.276 865.458 628.326 865.43 627.43 865.421 626.477 865.149 597.777 865.164 570.235 865.09 545.108 865.016 519.981 864.866 497.267 864.428 478.121 863.99 458.976 863.298 443.474 862.444 432.755 861.59 422.038 860.558 416.057 859.515 416.057Z" fill="#00892C" fill-rule="evenodd" transform="matrix(1.00045 8.72665e-05 -8.7306e-05 1 626.75 1573.67)"/><path d="M873.39 439.896C872.463 440.483 872.535 446.906 873.169 458 873.804 469.093 875.006 484.88 876.255 504.383 877.504 523.886 878.768 547.15 879.782 573.103 880.676 595.969 881.349 620.997 881.854 647.227L895.962 647.227C895.381 620.025 894.29 593.958 892.699 570.221 890.921 543.679 888.557 519.986 885.998 500.421 883.439 480.856 880.695 465.407 878.415 455.028 876.135 444.649 874.317 439.31 873.39 439.897Z" fill="#00892C" fill-rule="evenodd" transform="matrix(1.00045 8.72665e-05 -8.7306e-05 1 626.75 1573.67)"/><path d="M508.037 653.877C508.069 648.991 508.081 644.101 508.037 639.126 508.004 635.634 507.922 632.097 507.847 628.568 507.389 606.895 506.129 586.066 503.971 567.003 501.814 547.94 498.779 530.629 495.079 515.531 491.701 501.518 487.782 489.415 483.83 479.431 479.879 469.446 475.881 461.6 472.354 455.441 464.38 444.575 459.813 437.122 460.231 435.024 460.674 432.951 466.13 436.506 475.584 444.806 479.924 449.987 484.883 457.42 489.872 467.475 494.862 477.531 499.855 490.28 504.199 505.516 508.771 521.753 512.592 540.581 515.295 561.258 517.998 581.934 519.601 604.422 520.045 627.558 520.118 631.325 520.145 635.102 520.159 638.815 520.183 643.904 520.145 648.889 520.083 653.876L508.036 653.876 508.037 653.876Z" fill="#00892C" fill-rule="evenodd" transform="matrix(1.00045 8.72665e-05 -8.7306e-05 1 626.75 1573.67)"/><path d="M549.04 653.877C549.298 649.036 549.585 644.187 549.8 639.283 551.079 610.205 551.485 581.976 551.117 555.34 550.692 524.155 549.188 495.108 547.166 469.222 545.143 443.337 542.62 420.665 540.275 401.84 537.93 383.014 535.805 368.025 534.499 357.539 533.194 347.053 532.701 341.049 533.536 340.253 534.372 339.457 536.449 343.942 539.312 353.295 542.176 362.649 545.849 376.902 549.597 395.526 553.346 414.15 557.134 437.199 560.237 463.944 563.341 490.689 565.724 521.116 566.671 553.995 567.475 582.021 567.297 611.774 565.962 642.285 565.792 646.184 565.609 650.021 565.405 653.878L549.04 653.878Z" fill="#00892C" fill-rule="evenodd" transform="matrix(1.00045 8.72665e-05 -8.7306e-05 1 626.75 1573.67)"/><path d="M582.218 653.877C585.465 633.41 588.822 613.916 591.909 595.651 595.235 575.97 598.24 557.61 600.687 540.764 602.114 530.92 603.362 521.625 604.373 512.971 605.384 504.317 606.15 496.312 606.729 488.982 607.296 481.738 607.666 475.157 607.907 469.417 608.149 463.677 608.251 458.796 608.325 454.744 608.399 450.693 608.47 447.477 608.591 445.273 608.713 443.068 608.903 441.855 609.237 441.701 609.571 441.548 610.041 442.475 610.567 444.496 611.093 446.517 611.688 449.665 612.239 453.812 612.79 457.96 613.274 463.12 613.607 469.262 613.94 475.404 614.087 482.475 613.987 490.301 613.892 498.21 613.574 506.918 612.961 516.231 612.349 525.543 611.462 535.515 610.339 545.888 608.425 563.617 605.862 582.791 602.853 602.949 600.413 619.296 597.654 636.389 594.911 653.878L582.219 653.878Z" fill="#00892C" fill-rule="evenodd" transform="matrix(1.00045 8.72665e-05 -8.7306e-05 1 626.75 1573.67)"/><path d="M732.78 653.877C732.709 650.214 732.615 646.594 732.552 642.884 732.545 642.518 732.558 642.133 732.552 641.766 732.038 610.456 731.794 580.584 731.503 553.263 731.213 525.943 730.845 501.181 730.318 480.412 729.79 459.642 729.108 442.851 728.266 431.223 727.423 419.594 726.445 413.15 725.438 413.15 724.431 413.15 723.469 419.555 722.565 431.129 721.662 442.704 720.805 459.421 720.012 480.131 719.219 500.842 718.498 525.575 718.051 553.076 717.604 580.578 717.441 610.889 717.96 642.79 717.965 643.163 717.954 643.534 717.96 643.908 718.015 647.268 718.117 650.548 718.188 653.876L732.78 653.876Z" fill="#00892C" fill-rule="evenodd" transform="matrix(1.00045 8.72665e-05 -8.7306e-05 1 626.75 1573.67)"/><path d="M694.59 653.877C694.282 638.205 693.628 623.168 692.619 609.396 691.396 592.71 689.678 577.861 687.77 565.744 685.862 553.628 683.795 544.23 682.076 538.008 680.357 531.785 679.019 528.723 678.385 529.252 677.75 529.78 677.877 533.856 678.447 540.692 679.018 547.528 679.992 557.143 680.95 569.133 681.908 581.121 682.829 595.471 683.484 611.57 684.015 624.64 684.351 638.922 684.579 653.878L694.59 653.878Z" fill="#00892C" fill-rule="evenodd" transform="matrix(1.00045 8.72665e-05 -8.7306e-05 1 626.75 1573.67)"/><path d="M801.066 400.388C800.69 400.377 800.079 401.342 799.28 403.338 798.367 405.619 797.207 409.248 795.936 414.129 794.665 419.01 793.292 425.156 791.984 432.606 790.676 440.056 789.443 448.828 788.488 458.691 787.613 467.735 786.988 477.696 786.664 488.424 786.339 499.154 786.333 510.656 786.702 522.661 787.251 540.385 788.517 559.228 790.502 578.713 792.487 598.197 795.182 618.305 798.254 638.647 798.88 642.794 799.515 646.849 800.154 650.913 800.404 652.513 800.662 654.062 800.914 655.649L813.606 655.649C812.967 651.572 812.342 647.593 811.706 643.46 811.092 639.441 810.494 635.421 809.882 631.349 806.882 611.38 804.174 591.953 802.016 573.434 799.857 554.915 798.261 537.301 797.304 520.719 796.654 509.525 796.268 498.801 796.164 488.812 796.06 478.822 796.236 469.546 796.582 461.019 797.329 442.462 798.949 427.605 800.116 417.31 800.7 412.163 801.148 408.121 801.37 405.277 801.592 402.433 801.572 400.811 801.218 400.464 801.174 400.421 801.12 400.388 801.066 400.386L801.066 400.386Z" fill="#00892C" fill-rule="evenodd" transform="matrix(1.00045 8.72665e-05 -8.7306e-05 1 626.75 1573.67)"/><path d="M739.588 402.152C739.45 402.096 739.266 402.203 739.133 402.617 739 403.032 738.937 403.83 738.905 404.385 738.837 405.366 738.831 406.639 738.905 408.106 739.052 411.005 739.477 414.9 740.089 419.548 741.306 428.786 743.358 441.481 745.826 456.944 750.698 487.459 757.312 529.372 762.446 578.811 764.939 602.842 767.023 628.685 768.457 655.651L783.165 655.651C781.604 626.189 778.977 598.121 775.788 572.392 772.633 546.918 768.927 523.708 765.133 503.181 761.339 482.655 757.472 464.831 753.931 450.157 750.331 435.229 747.116 423.66 744.642 415.552 743.387 411.427 742.357 408.293 741.546 406.063 741.131 404.912 740.783 404.089 740.498 403.458 740.314 402.878 740.095 402.797 739.952 402.621 739.809 402.446 739.725 402.212 739.588 402.156Z" fill="#00892C" fill-rule="evenodd" transform="matrix(1.00045 8.72665e-05 -8.7306e-05 1 626.75 1573.67)"/><path d="M655.258 451.395C656.03 451.927 655.762 458.341 654.764 469.484 653.765 480.626 652.051 496.553 650.051 516.219 648.052 535.885 645.775 559.241 644.047 585.314 642.603 607.102 641.547 630.801 641.387 655.651L629.341 655.651C629.672 629.266 631.141 604.34 633.179 581.743 635.601 554.876 638.774 531.21 641.881 511.716 644.988 492.224 648.021 476.954 650.393 466.61 652.765 456.267 654.484 450.863 655.257 451.394Z" fill="#00892C" fill-rule="evenodd" transform="matrix(1.00045 8.72665e-05 -8.7306e-05 1 626.75 1573.67)"/><path d="M834.784 456.387C833.885 456.387 833.041 461.548 832.218 470.697 831.395 479.846 830.576 493.022 829.775 509.385 828.973 525.749 828.212 545.262 827.616 567.044 827.021 588.825 826.609 612.888 826.842 638.263 826.849 639.106 826.874 639.918 826.883 640.759 826.926 645.138 827.002 649.507 827.087 653.821L840.119 653.821C840.051 649.311 839.967 644.776 839.916 640.176 839.907 639.358 839.883 638.585 839.875 637.763 839.641 613.025 839.654 589.284 839.59 567.626 839.526 545.967 839.397 526.387 839.02 509.884 838.642 493.382 838.045 480.019 837.309 470.781 836.573 461.542 835.683 456.387 834.784 456.387Z" fill="#00892C" fill-rule="evenodd" transform="matrix(1.00045 8.72665e-05 -8.7306e-05 1 626.75 1573.67)"/><path d="M846.739 476.935C845.94 477.441 846.002 482.978 846.549 492.539 847.096 502.101 848.133 515.71 849.209 532.521 850.286 549.332 851.375 569.385 852.249 591.755 853.02 611.465 853.601 633.039 854.035 655.649L866.196 655.649C865.696 632.201 864.755 609.732 863.384 589.271 861.851 566.391 859.813 545.969 857.608 529.104 855.402 512.239 853.037 498.924 851.072 489.977 849.106 481.03 847.539 476.428 846.74 476.934Z" fill="#00892C" fill-rule="evenodd" transform="matrix(1.00045 8.72665e-05 -8.7306e-05 1 626.75 1573.67)"/><path d="M663.56 653.877C663.817 649.036 664.104 644.187 664.32 639.283 665.598 610.205 666.004 581.976 665.637 555.34 665.212 524.155 663.708 495.108 661.685 469.222 659.663 443.337 657.14 420.665 654.795 401.84 652.45 383.014 650.324 368.025 649.019 357.539 647.714 347.053 647.221 341.049 648.056 340.253 648.892 339.457 650.968 343.942 653.832 353.295 656.696 362.649 660.369 376.902 664.117 395.526 667.866 414.15 671.653 437.199 674.757 463.944 677.86 490.689 680.244 521.116 681.191 553.995 681.995 582.021 681.817 611.774 680.482 642.285 680.311 646.184 680.129 650.021 679.925 653.878L663.56 653.878Z" fill="#00892C" fill-rule="evenodd" transform="matrix(1.00045 8.72665e-05 -8.7306e-05 1 626.75 1573.67)"/><path d="M712.273 400.388C711.897 400.377 711.286 401.342 710.487 403.338 709.574 405.619 708.414 409.248 707.143 414.129 705.872 419.01 704.499 425.156 703.191 432.606 701.883 440.056 700.651 448.828 699.695 458.691 698.82 467.735 698.195 477.696 697.871 488.424 697.547 499.154 697.54 510.656 697.909 522.661 698.458 540.385 699.724 559.228 701.709 578.713 703.694 598.197 706.389 618.305 709.461 638.647 710.088 642.794 710.722 646.849 711.361 650.913 711.612 652.513 711.869 654.062 712.121 655.649L724.813 655.649C724.174 651.572 723.549 647.593 722.913 643.46 722.299 639.441 721.701 635.421 721.089 631.349 718.089 611.38 715.381 591.953 713.223 573.434 711.065 554.915 709.468 537.301 708.511 520.719 707.861 509.525 707.475 498.801 707.371 488.812 707.267 478.822 707.443 469.546 707.789 461.019 708.536 442.462 710.156 427.605 711.323 417.31 711.907 412.163 712.355 408.121 712.577 405.277 712.799 402.433 712.779 400.811 712.425 400.464 712.381 400.421 712.327 400.388 712.273 400.386L712.273 400.386Z" fill="#00892C" fill-rule="evenodd" transform="matrix(1.00045 8.72665e-05 -8.7306e-05 1 626.75 1573.67)"/><path d="M834.089 416.183C834.226 416.127 834.411 416.234 834.544 416.648 834.677 417.063 834.739 417.861 834.772 418.416 834.84 419.397 834.846 420.67 834.772 422.136 834.625 425.035 834.199 428.931 833.588 433.579 832.371 442.817 830.318 455.512 827.85 470.976 822.978 501.49 816.364 543.404 811.23 592.843 808.737 616.874 806.653 642.716 805.22 669.681L790.512 669.681C792.072 640.221 794.7 612.152 797.889 586.424 801.043 560.949 804.75 537.739 808.544 517.213 812.338 496.687 816.205 478.863 819.746 464.188 823.346 449.261 826.561 437.692 829.035 429.582 830.29 425.458 831.32 422.324 832.131 420.094 832.546 418.943 832.894 418.12 833.178 417.489 833.363 416.909 833.581 416.828 833.725 416.652 833.868 416.476 833.952 416.243 834.089 416.187Z" fill="#00892C" fill-rule="evenodd" transform="matrix(1.00045 8.72665e-05 -8.7306e-05 1 626.75 1573.67)"/><path d="M896.532 451.395C897.305 451.927 897.036 458.341 896.038 469.484 895.04 480.626 893.326 496.553 891.326 516.219 889.326 535.885 887.05 559.241 885.322 585.314 883.878 607.102 882.822 630.801 882.662 655.651L870.615 655.651C870.947 629.266 872.416 604.34 874.453 581.743 876.876 554.876 880.049 531.21 883.156 511.716 886.262 492.224 889.296 476.954 891.668 466.61 894.04 456.267 895.759 450.863 896.532 451.394Z" fill="#00892C" fill-rule="evenodd" transform="matrix(1.00045 8.72665e-05 -8.7306e-05 1 626.75 1573.67)"/><path d="M774.842 447.97C773.942 447.97 773.099 453.131 772.276 462.281 771.453 471.431 770.634 484.606 769.832 500.97 769.031 517.334 768.269 536.846 767.674 558.628 767.078 580.409 766.666 604.472 766.9 629.847 766.907 630.69 766.931 631.503 766.941 632.344 766.984 636.722 767.06 641.092 767.144 645.406L780.177 645.406C780.108 640.896 780.025 636.361 779.973 631.761 779.965 630.942 779.94 630.17 779.932 629.348 779.698 604.61 779.711 580.869 779.647 559.211 779.583 537.552 779.455 517.973 779.077 501.469 778.7 484.967 778.102 471.604 777.367 462.366 776.631 453.127 775.741 447.972 774.842 447.972Z" fill="#00892C" fill-rule="evenodd" transform="matrix(1.00045 8.72665e-05 -8.7306e-05 1 626.75 1573.67)"/><path d="M685.146 465.706C684.347 466.212 684.409 471.749 684.956 481.31 685.503 490.872 686.539 504.481 687.616 521.292 688.693 538.103 689.781 558.156 690.656 580.527 691.426 600.236 692.007 621.81 692.442 644.42L704.603 644.42C704.102 620.972 703.162 598.503 701.791 578.042 700.257 555.162 698.22 534.741 696.014 517.876 693.809 501.011 691.443 487.695 689.478 478.748 687.513 469.801 685.945 465.2 685.146 465.705Z" fill="#00892C" fill-rule="evenodd" transform="matrix(1.00045 8.72665e-05 -8.7306e-05 1 626.75 1573.67)"/></g></svg>